<svg width="151" height="150" viewBox="0 0 151 150" fill="none" xmlns="http://www.w3.org/2000/svg">
<g clip-path="url(#clip0)">
<path d="M69.8803 46.7809C68.1782 45.0788 68.1782 42.3194 69.8803 40.6176L102.381 8.11675C104.083 6.4147 106.843 6.4147 108.544 8.11675C110.246 9.81881 110.246 12.5782 108.544 14.28L76.0435 46.7809C74.3415 48.4829 71.5821 48.4829 69.8803 46.7809Z" fill="url(#paint0_linear)"/>
<path d="M104.152 15.3129C103.844 15.0382 103.498 14.8088 103.122 14.6344C100.172 13.265 85.8787 7.11821 79.9125 13.5767C76.1966 17.5994 81.7481 24.3923 87.3946 29.6209C92.5507 34.3953 99.7172 35.2344 103.345 31.4988C107.453 27.2682 110.712 21.1561 104.152 15.3129Z" fill="url(#paint1_linear)"/>
<path d="M104.152 15.3129C103.844 15.0382 103.498 14.8088 103.122 14.6344C100.172 13.265 85.8787 7.1182 79.9125 13.5767C76.1966 17.5994 81.7481 24.3923 87.3946 29.6209C92.5507 34.3956 110.712 21.1561 104.152 15.3129Z" fill="url(#paint2_linear)"/>
<path d="M91.2437 22.7006L85.824 28.1203C86.3416 28.6317 86.8675 29.1332 87.3943 29.6209C91.7584 33.6617 97.5616 34.8826 101.441 32.8979L91.2437 22.7006Z" fill="url(#paint3_linear)"/>
<path d="M59.8509 21.7239C66.3115 24.6421 73.5212 29.706 80.2383 36.423C86.9553 43.1401 92.0192 50.3501 94.9374 56.8104C96.5051 60.2807 101.801 59.8727 105.678 55.9951C108.268 53.4057 109.447 49.9883 108.579 47.5495C106.017 40.3533 100.438 31.8645 92.6171 24.0442C84.7965 16.2236 76.3077 10.6442 69.1115 8.08272C66.6727 7.21448 63.255 8.3936 60.6659 10.983C56.7886 14.8604 56.3803 20.1562 59.8509 21.7239Z" fill="url(#paint4_linear)"/>
<path d="M91.0601 34.3703C90.8607 34.153 90.6486 33.9409 90.4239 33.7338C85.8772 28.7782 74.4045 26.515 69.0239 27.0015C72.7745 29.5997 76.5795 32.7635 80.2383 36.4224C86.9554 43.1394 92.0192 50.3494 94.9375 56.8097C96.5051 60.28 101.801 59.8721 105.678 55.9944C106.969 54.7038 107.909 53.2077 108.42 51.7294L91.0601 34.3703Z" fill="url(#paint5_linear)"/>
<path d="M66.547 27.6818C66.547 27.6818 51.2162 38.2018 46.3465 49.6612C41.4767 61.1206 70.155 70.7024 76.4979 67.6956C82.8409 64.6888 92.3388 47.5947 92.3388 38.2021C92.3388 28.8094 69.8117 25.2409 66.547 27.6818Z" fill="url(#paint6_linear)"/>
<path d="M66.5469 27.6819C66.5469 27.6819 52.474 37.3401 47.0122 48.2283C54.5884 52.0821 64.1613 54.0042 67.5099 52.4169C72.6316 49.9889 79.8093 38.3769 82.3837 29.0504C75.9043 26.811 68.3354 26.3448 66.5469 27.6819Z" fill="url(#paint7_linear)"/>
<g opacity="0.5">
<g opacity="0.5">
<path opacity="0.5" d="M67.1347 33.2924C68.031 33.2924 68.7576 32.5658 68.7576 31.6695C68.7576 30.7731 68.031 30.0465 67.1347 30.0465C66.2383 30.0465 65.5117 30.7731 65.5117 31.6695C65.5117 32.5658 66.2383 33.2924 67.1347 33.2924Z" fill="url(#paint8_linear)"/>
<path opacity="0.5" d="M64.9882 37.6506C65.6958 37.6506 66.2694 37.077 66.2694 36.3694C66.2694 35.6619 65.6958 35.0883 64.9882 35.0883C64.2806 35.0883 63.707 35.6619 63.707 36.3694C63.707 37.077 64.2806 37.6506 64.9882 37.6506Z" fill="url(#paint9_linear)"/>
<path opacity="0.5" d="M70.6759 37.1186C71.1025 37.1186 71.4483 36.7728 71.4483 36.3462C71.4483 35.9196 71.1025 35.5739 70.6759 35.5739C70.2494 35.5739 69.9036 35.9196 69.9036 36.3462C69.9036 36.7728 70.2494 37.1186 70.6759 37.1186Z" fill="url(#paint10_linear)"/>
</g>
<g opacity="0.5">
<path opacity="0.5" d="M75.791 32.4124C76.4534 32.4124 76.9904 31.8754 76.9904 31.213C76.9904 30.5505 76.4534 30.0135 75.791 30.0135C75.1285 30.0135 74.5916 30.5505 74.5916 31.213C74.5916 31.8754 75.1285 32.4124 75.791 32.4124Z" fill="url(#paint11_linear)"/>
<path opacity="0.5" d="M72.145 33.2929C72.6679 33.2929 73.0918 32.8691 73.0918 32.3462C73.0918 31.8233 72.6679 31.3994 72.145 31.3994C71.6221 31.3994 71.1982 31.8233 71.1982 32.3462C71.1982 32.8691 71.6221 33.2929 72.145 33.2929Z" fill="url(#paint12_linear)"/>
<path opacity="0.5" d="M74.96 36.038C75.2753 36.038 75.5309 35.7824 75.5309 35.4671C75.5309 35.1518 75.2753 34.8962 74.96 34.8962C74.6448 34.8962 74.3892 35.1518 74.3892 35.4671C74.3892 35.7824 74.6448 36.038 74.96 36.038Z" fill="url(#paint13_linear)"/>
</g>
</g>
<path d="M64.6982 37.4236C60.555 37.4236 56.6317 38.1898 53.1276 39.5556C50.3741 42.6433 47.8567 46.1068 46.3465 49.6612C41.4767 61.1206 70.155 70.7024 76.4979 67.6956C80.5479 65.7759 85.8832 58.1136 89.212 50.3795C85.0194 42.7453 75.6244 37.4236 64.6982 37.4236Z" fill="url(#paint14_linear)"/>
<path d="M86.6854 55.5464C80.9389 47.6714 70.403 42.3903 58.3451 42.3903C55.5071 42.3903 52.7536 42.6838 50.1265 43.2338C48.603 45.2964 47.2821 47.4611 46.3474 49.6611C41.4777 61.1206 70.156 70.7023 76.4989 67.6956C79.6333 66.2097 83.5371 61.2832 86.6854 55.5464Z" fill="url(#paint15_linear)"/>
<path d="M66.4793 54.6903L57.1157 64.0538C64.4904 67.5388 73.3122 69.2056 76.4984 67.6953C77.081 67.4191 77.6901 67.0238 78.316 66.5268L66.4793 54.6903Z" fill="url(#paint16_linear)"/>
<path d="M31.4982 50.0764C37.9588 52.9947 45.1685 58.0585 51.8856 64.7756C58.6026 71.4926 63.6665 78.7026 66.5847 85.1629C68.1524 88.6332 73.4482 88.2253 77.3256 84.3476C79.915 81.7582 81.0941 78.3409 80.2259 75.902C77.6644 68.7058 72.085 60.217 64.2644 52.3967C56.4438 44.5761 47.955 38.9967 40.7591 36.4353C38.3203 35.567 34.9027 36.7461 32.3135 39.3355C28.4359 43.2129 28.0279 48.5088 31.4982 50.0764Z" fill="url(#paint17_linear)"/>
<path d="M77.326 84.3477C79.9155 81.7582 81.0946 78.3409 80.2263 75.9021C80.2061 75.8447 80.1837 75.7868 80.1631 75.7294L65.1149 60.6812C64.694 60.2485 64.2434 59.8162 63.7593 59.3847C63.2484 58.9297 62.676 58.5497 62.0537 58.2609C58.5828 56.65 45.6375 51.0503 34.8843 51.7697C40.4193 54.7853 46.321 59.2106 51.886 64.7756C58.6031 71.4927 63.6669 78.7027 66.5852 85.1629C68.1525 88.6332 73.4484 88.225 77.326 84.3477Z" fill="url(#paint18_linear)"/>
<path d="M63.7592 59.3847C63.2483 58.9297 62.676 58.5497 62.0536 58.2609C57.166 55.9923 33.4889 45.81 23.6057 56.5088C17.4501 63.1723 26.6463 74.4253 35.9998 83.0864C44.5413 90.9956 56.4128 92.3853 62.4219 86.1976C69.2283 79.1888 74.6257 69.0641 63.7592 59.3847Z" fill="url(#paint19_linear)"/>
<path d="M63.7592 59.3847C63.2483 58.9297 62.676 58.5497 62.0536 58.2609C57.166 55.9923 33.4889 45.81 23.6057 56.5088C17.4501 63.1723 26.6463 74.4253 35.9998 83.0864C44.5416 90.9956 74.6257 69.0641 63.7592 59.3847Z" fill="url(#paint20_linear)"/>
<g opacity="0.5">
<g opacity="0.5">
<path opacity="0.5" d="M53.4877 76.8926C53.9142 76.8926 54.26 76.5468 54.26 76.1203C54.26 75.6937 53.9142 75.3479 53.4877 75.3479C53.0611 75.3479 52.7153 75.6937 52.7153 76.1203C52.7153 76.5468 53.0611 76.8926 53.4877 76.8926Z" fill="url(#paint21_linear)"/>
</g>
<g opacity="0.5">
<path opacity="0.5" d="M58.6037 72.1864C59.2661 72.1864 59.8031 71.6494 59.8031 70.987C59.8031 70.3246 59.2661 69.7876 58.6037 69.7876C57.9413 69.7876 57.4043 70.3246 57.4043 70.987C57.4043 71.6494 57.9413 72.1864 58.6037 72.1864Z" fill="url(#paint22_linear)"/>
<path opacity="0.5" d="M54.9577 73.0674C55.4806 73.0674 55.9045 72.6435 55.9045 72.1206C55.9045 71.5977 55.4806 71.1738 54.9577 71.1738C54.4349 71.1738 54.011 71.5977 54.011 72.1206C54.011 72.6435 54.4349 73.0674 54.9577 73.0674Z" fill="url(#paint23_linear)"/>
<path opacity="0.5" d="M57.7723 75.8123C58.0876 75.8123 58.3432 75.5567 58.3432 75.2414C58.3432 74.9261 58.0876 74.6705 57.7723 74.6705C57.457 74.6705 57.2014 74.9261 57.2014 75.2414C57.2014 75.5567 57.457 75.8123 57.7723 75.8123Z" fill="url(#paint24_linear)"/>
</g>
</g>
<path d="M36 83.0865C41.66 88.3274 48.7806 90.7024 54.6903 89.91L40.7209 75.9406L34.75 81.9115C35.1653 82.308 35.5824 82.7 36 83.0865Z" fill="url(#paint25_linear)"/>
<path d="M5.48747 71.1541C12.6072 74.7317 20.6801 80.6582 28.3413 88.3197C36.0025 95.9811 41.9292 104.054 45.5069 111.173C47.4286 114.998 53.0681 114.933 56.9457 111.056C59.5351 108.467 60.5569 104.892 59.4563 102.221C56.2086 94.3385 49.6404 84.8608 40.7204 75.9405C31.8004 67.0205 22.3228 60.452 14.4404 57.2047C11.7689 56.1041 8.19423 57.1258 5.60482 59.7153C1.72747 63.5926 1.66276 69.232 5.48747 71.1541Z" fill="url(#paint26_radial)"/>
<path d="M28.3415 88.3197C36.0029 95.9812 41.9294 104.054 45.5071 111.174C47.4288 114.998 53.0682 114.934 56.9459 111.056C58.5212 109.481 59.5118 107.541 59.8018 105.662L35.4003 81.2609C33.6982 79.5588 30.9388 79.5588 29.2371 81.2609L25.1997 85.2982C26.2521 86.2732 27.3009 87.2788 28.3415 88.3197Z" fill="url(#paint27_linear)"/>
<path d="M1.97772 114.684C0.275657 112.981 0.275657 110.222 1.97772 108.52L29.2371 81.2609C30.9392 79.5588 33.6986 79.5588 35.4004 81.2609C37.1024 82.9629 37.1024 85.7223 35.4004 87.4241L8.14095 114.684C6.43919 116.386 3.67977 116.386 1.97772 114.684Z" fill="url(#paint28_linear)"/>
<path d="M108.557 74.0126C106.855 72.3105 106.855 69.5511 108.557 67.8494L141.058 35.3482C142.76 33.6461 145.519 33.6461 147.221 35.3482C148.923 37.0503 148.923 39.8097 147.221 41.5114L114.72 74.0126C113.018 75.7144 110.259 75.7144 108.557 74.0126Z" fill="url(#paint29_linear)"/>
<path d="M107.434 43.3097C113.096 46.1547 119.516 50.8679 125.608 56.9609C131.701 63.0538 136.414 69.4735 139.26 75.1356C140.788 78.177 145.273 78.1259 148.356 75.042C150.416 72.9829 151.228 70.14 150.353 68.0156C147.77 61.7473 142.547 54.21 135.453 47.1165C128.359 40.0226 120.822 34.7991 114.554 32.2165C112.429 31.3412 109.586 32.1538 107.527 34.2129C104.444 37.2967 104.392 41.7815 107.434 43.3097Z" fill="url(#paint30_radial)"/>
<path d="M109.875 44.6285C114.903 47.5168 120.376 51.728 125.609 56.9609C131.702 63.0535 136.415 69.4735 139.26 75.1356C140.788 78.1771 145.273 78.1259 148.357 75.0421C150.416 72.983 151.229 70.14 150.353 68.0156C149.803 66.6806 149.127 65.2856 148.345 63.8521L138.234 53.7418C137.776 53.263 137.281 52.7844 136.745 52.3074C136.235 51.8524 135.662 51.4724 135.04 51.1835C131.782 49.6718 120.178 44.6462 109.875 44.6285Z" fill="url(#paint31_linear)"/>
<path d="M136.744 52.3073C136.233 51.8523 135.661 51.4723 135.039 51.1835C130.151 48.9149 106.474 38.7326 96.5908 49.4314C90.4352 56.0949 99.6314 67.3479 108.985 76.0091C117.526 83.9182 129.398 85.3079 135.407 79.1202C142.213 72.1114 147.611 61.9867 136.744 52.3073Z" fill="url(#paint32_linear)"/>
<path d="M136.744 52.3073C136.233 51.8523 135.661 51.4723 135.039 51.1835C130.151 48.9149 106.474 38.7326 96.5908 49.4314C90.4352 56.0949 99.6314 67.3479 108.985 76.0091C117.527 83.9182 147.611 61.9867 136.744 52.3073Z" fill="url(#paint33_linear)"/>
<g opacity="0.5">
<g opacity="0.5">
<path opacity="0.5" d="M126.473 69.8152C126.899 69.8152 127.245 69.4694 127.245 69.0429C127.245 68.6163 126.899 68.2705 126.473 68.2705C126.046 68.2705 125.7 68.6163 125.7 69.0429C125.7 69.4694 126.046 69.8152 126.473 69.8152Z" fill="url(#paint34_linear)"/>
</g>
<g opacity="0.5">
<path opacity="0.5" d="M131.589 65.109C132.251 65.109 132.788 64.572 132.788 63.9096C132.788 63.2472 132.251 62.7102 131.589 62.7102C130.926 62.7102 130.389 63.2472 130.389 63.9096C130.389 64.572 130.926 65.109 131.589 65.109Z" fill="url(#paint35_linear)"/>
<path opacity="0.5" d="M127.942 65.9897C128.465 65.9897 128.889 65.5658 128.889 65.0429C128.889 64.52 128.465 64.0961 127.942 64.0961C127.419 64.0961 126.996 64.52 126.996 65.0429C126.996 65.5658 127.419 65.9897 127.942 65.9897Z" fill="url(#paint36_linear)"/>
<path opacity="0.5" d="M130.757 68.7346C131.073 68.7346 131.328 68.479 131.328 68.1637C131.328 67.8484 131.073 67.5928 130.757 67.5928C130.442 67.5928 130.187 67.8484 130.187 68.1637C130.187 68.479 130.442 68.7346 130.757 68.7346Z" fill="url(#paint37_linear)"/>
</g>
</g>
<path d="M129.196 82.5547L116.838 70.197L110.074 76.9611C116.05 81.9591 123.38 83.9358 129.196 82.5547Z" fill="url(#paint38_linear)"/>
<path d="M81.8792 65.6038C88.3398 68.5221 95.5495 73.5859 102.267 80.303C108.984 87.02 114.047 94.23 116.966 100.69C118.533 104.161 123.829 103.753 127.707 99.875C130.296 97.2856 131.475 93.8683 130.607 91.4294C128.045 84.2333 122.466 75.7444 114.645 67.9241C106.825 60.1035 98.336 54.5241 91.1401 51.9627C88.7013 51.0944 85.2836 52.2735 82.6945 54.863C78.8169 58.7403 78.4086 64.0362 81.8792 65.6038Z" fill="url(#paint39_linear)"/>
<path d="M114.183 78.0076C113.911 77.7053 113.606 77.4194 113.258 77.1565C104.558 70.5818 88.9847 69.1891 88.9847 69.1891C88.8433 69.1706 88.6818 69.1759 88.5056 69.2C93.0656 72.0656 97.7756 75.8123 102.266 80.3029C108.983 87.02 114.047 94.23 116.965 100.69C118.533 104.161 123.829 103.753 127.706 99.875C129.304 98.2773 130.362 96.3647 130.737 94.5609L114.183 78.0076Z" fill="url(#paint40_linear)"/>
<path d="M88.9849 69.1892C88.9849 69.1892 104.558 70.5818 113.258 77.1565C121.958 83.7312 106.354 103.23 100.533 103.671C94.7119 104.111 80.174 95.2586 75.8313 88.163C71.4887 81.0674 85.5758 68.7412 88.9849 69.1892Z" fill="url(#paint41_linear)"/>
<path d="M88.9848 69.1891C88.9848 69.1891 103.281 70.4686 112.13 76.3586C108.619 82.5088 102.821 88.0533 99.7474 88.2859C95.0471 88.6415 84.6648 82.9383 78.5542 76.9933C82.0454 72.5318 87.1171 68.9436 88.9848 69.1891Z" fill="url(#paint42_linear)"/>
<g opacity="0.5">
<g opacity="0.5">
<path opacity="0.5" d="M86.2265 74.6233C87.1228 74.6233 87.8494 73.8967 87.8494 73.0004C87.8494 72.1041 87.1228 71.3774 86.2265 71.3774C85.3301 71.3774 84.6035 72.1041 84.6035 73.0004C84.6035 73.8967 85.3301 74.6233 86.2265 74.6233Z" fill="url(#paint43_linear)"/>
<path opacity="0.5" d="M84.08 78.9816C84.7876 78.9816 85.3612 78.408 85.3612 77.7004C85.3612 76.9928 84.7876 76.4192 84.08 76.4192C83.3724 76.4192 82.7988 76.9928 82.7988 77.7004C82.7988 78.408 83.3724 78.9816 84.08 78.9816Z" fill="url(#paint44_linear)"/>
<path opacity="0.5" d="M89.7677 78.4495C90.1943 78.4495 90.5401 78.1037 90.5401 77.6771C90.5401 77.2506 90.1943 76.9048 89.7677 76.9048C89.3412 76.9048 88.9954 77.2506 88.9954 77.6771C88.9954 78.1037 89.3412 78.4495 89.7677 78.4495Z" fill="url(#paint45_linear)"/>
</g>
<g opacity="0.5">
<path opacity="0.5" d="M94.8828 73.7433C95.5452 73.7433 96.0822 73.2063 96.0822 72.5439C96.0822 71.8815 95.5452 71.3445 94.8828 71.3445C94.2203 71.3445 93.6833 71.8815 93.6833 72.5439C93.6833 73.2063 94.2203 73.7433 94.8828 73.7433Z" fill="url(#paint46_linear)"/>
<path opacity="0.5" d="M91.2368 74.6239C91.7597 74.6239 92.1836 74.2 92.1836 73.6771C92.1836 73.1542 91.7597 72.7303 91.2368 72.7303C90.7139 72.7303 90.29 73.1542 90.29 73.6771C90.29 74.2 90.7139 74.6239 91.2368 74.6239Z" fill="url(#paint47_linear)"/>
<path opacity="0.5" d="M94.0518 77.3689C94.3671 77.3689 94.6227 77.1133 94.6227 76.798C94.6227 76.4827 94.3671 76.2271 94.0518 76.2271C93.7366 76.2271 93.481 76.4827 93.481 76.798C93.481 77.1133 93.7366 77.3689 94.0518 77.3689Z" fill="url(#paint48_linear)"/>
</g>
</g>
<path d="M94.7802 75.7577C97.6746 73.9862 100.769 72.8877 103.848 72.4215C107.2 73.5768 110.559 75.1171 113.258 77.1562C121.957 83.7309 106.353 103.23 100.533 103.67C96.8158 103.952 89.5461 100.444 83.6452 96.025C83.0449 88.4659 87.1475 80.4292 94.7802 75.7577Z" fill="url(#paint49_linear)"/>
<path d="M87.7996 98.8482C88.1728 90.4426 93.0913 81.9485 101.515 76.7935C103.497 75.5803 105.556 74.6247 107.646 73.9171C109.664 74.8238 111.587 75.8944 113.257 77.1565C121.957 83.7312 106.353 103.23 100.533 103.671C97.6557 103.888 92.651 101.836 87.7996 98.8482Z" fill="url(#paint50_linear)"/>
<path d="M95.5396 93.1088C95.2258 92.7858 94.8896 92.4635 94.5285 92.1417C94.1488 91.8035 93.7232 91.5208 93.2605 91.3064C90.9008 90.2114 82.6511 86.6364 75.144 86.4417C75.2732 87.0408 75.4973 87.6176 75.8311 88.1632C80.1737 95.2588 94.7114 104.111 100.533 103.671C101.549 103.594 102.864 102.934 104.296 101.866L95.5396 93.1088Z" fill="url(#paint51_linear)"/>
<path d="M94.5285 92.1418C94.1488 91.8035 93.7233 91.5209 93.2606 91.3062C89.6271 89.6197 72.025 82.05 64.6777 90.0038C60.1015 94.9576 66.938 103.323 73.8918 109.762C80.2418 115.642 89.0671 116.675 93.5344 112.075C98.5944 106.865 102.607 99.3376 94.5285 92.1418Z" fill="url(#paint52_linear)"/>
<path d="M94.5285 92.1418C94.1488 91.8035 93.7232 91.5209 93.2606 91.3062C89.6271 89.6197 72.025 82.05 64.6777 90.0038C60.1015 94.9576 66.938 103.323 73.8918 109.762C80.2418 115.642 102.607 99.3376 94.5285 92.1418Z" fill="url(#paint53_linear)"/>
<path d="M73.892 109.762C79.7811 115.215 87.7967 116.496 92.4932 112.984L81.0394 101.531L73.332 109.238C73.5185 109.414 73.7053 109.589 73.892 109.762Z" fill="url(#paint54_linear)"/>
<path d="M50.2834 101.221C56.2063 103.602 62.7128 107.962 68.6599 113.909C74.6069 119.856 78.9672 126.363 81.3481 132.286C82.6269 135.468 87.6428 134.779 91.5202 130.902C94.1096 128.312 95.4169 125.023 94.7384 122.774C92.7361 116.137 87.9628 108.454 81.0387 101.53C74.1146 94.6062 66.4322 89.8329 59.7952 87.8306C57.5458 87.152 54.2566 88.4594 51.6672 91.0488C47.7902 94.9265 47.1016 99.9423 50.2834 101.221Z" fill="url(#paint55_linear)"/>
<path d="M74.0772 108.492C72.3751 106.79 69.6157 106.79 67.914 108.492L65.4792 110.927C66.5525 111.872 67.6151 112.865 68.6601 113.909C74.6072 119.856 78.9675 126.363 81.3484 132.286C82.6272 135.468 87.6431 134.779 91.5204 130.902C92.3981 130.024 93.1242 129.066 93.6798 128.095L74.0772 108.492Z" fill="url(#paint56_linear)"/>
<path d="M40.6542 141.915C38.9522 140.213 38.9522 137.453 40.6542 135.752L67.9136 108.492C69.6157 106.79 72.3751 106.79 74.0769 108.492C75.7789 110.194 75.7789 112.954 74.0769 114.656L46.8175 141.915C45.1154 143.617 42.3563 143.617 40.6542 141.915Z" fill="url(#paint57_linear)"/>
</g>
<defs>
<linearGradient id="paint0_linear" x1="87.3486" y1="25.6477" x2="99.2015" y2="37.5005" gradientUnits="userSpaceOnUse">
<stop stop-color="#A57C52"/>
<stop offset="0.1339" stop-color="#A26C4A"/>
<stop offset="0.5155" stop-color="#994336"/>
<stop offset="0.8174" stop-color="#942A2A"/>
<stop offset="1" stop-color="#922125"/>
</linearGradient>
<linearGradient id="paint1_linear" x1="94.4133" y1="17.2567" x2="89.2459" y2="30.2312" gradientUnits="userSpaceOnUse">
<stop stop-color="#FFDECF"/>
<stop offset="0.3791" stop-color="#FDC4B0"/>
<stop offset="0.7655" stop-color="#FBAE97"/>
<stop offset="1" stop-color="#FAA68E"/>
</linearGradient>
<linearGradient id="paint2_linear" x1="92.1014" y1="19.1014" x2="91.092" y2="45.2261" gradientUnits="userSpaceOnUse">
<stop stop-color="#FFDECF"/>
<stop offset="0.3791" stop-color="#FDC4B0"/>
<stop offset="0.7655" stop-color="#FBAE97"/>
<stop offset="1" stop-color="#FAA68E"/>
</linearGradient>
<linearGradient id="paint3_linear" x1="103.085" y1="39.962" x2="88.564" y2="25.4406" gradientUnits="userSpaceOnUse">
<stop stop-color="#F82814" stop-opacity="0"/>
<stop offset="0.2454" stop-color="#F12817" stop-opacity="0.245"/>
<stop offset="0.6052" stop-color="#DD2820" stop-opacity="0.605"/>
<stop offset="1" stop-color="#C0272D"/>
</linearGradient>
<linearGradient id="paint4_linear" x1="91.7883" y1="24.873" x2="78.5212" y2="38.1401" gradientUnits="userSpaceOnUse">
<stop stop-color="#BADA00"/>
<stop offset="0.2269" stop-color="#B0CE00"/>
<stop offset="0.6378" stop-color="#95AE00"/>
<stop offset="1" stop-color="#798C00"/>
</linearGradient>
<linearGradient id="paint5_linear" x1="104.297" y1="57.0662" x2="75.3795" y2="28.1486" gradientUnits="userSpaceOnUse">
<stop stop-color="#798C00" stop-opacity="0"/>
<stop offset="0.6542" stop-color="#556100" stop-opacity="0.654"/>
<stop offset="1" stop-color="#464F00"/>
</linearGradient>
<linearGradient id="paint6_linear" x1="65.6026" y1="35.1556" x2="76.6541" y2="67.5612" gradientUnits="userSpaceOnUse">
<stop stop-color="#A57C52"/>
<stop offset="0.1339" stop-color="#A26C4A"/>
<stop offset="0.5155" stop-color="#994336"/>
<stop offset="0.8174" stop-color="#942A2A"/>
<stop offset="1" stop-color="#922125"/>
</linearGradient>
<linearGradient id="paint7_linear" x1="64.126" y1="31.2766" x2="66.4543" y2="61.233" gradientUnits="userSpaceOnUse">
<stop stop-color="#A57C52"/>
<stop offset="0.1339" stop-color="#A26C4A"/>
<stop offset="0.5155" stop-color="#994336"/>
<stop offset="0.8174" stop-color="#942A2A"/>
<stop offset="1" stop-color="#922125"/>
</linearGradient>
<linearGradient id="paint8_linear" x1="69.0475" y1="32.9789" x2="63.7323" y2="27.4353" gradientUnits="userSpaceOnUse">
<stop stop-color="#42210B" stop-opacity="0"/>
<stop offset="1" stop-color="#42210B"/>
</linearGradient>
<linearGradient id="paint9_linear" x1="66.5432" y1="37.3027" x2="62.3474" y2="32.9264" gradientUnits="userSpaceOnUse">
<stop stop-color="#42210B" stop-opacity="0"/>
<stop offset="1" stop-color="#42210B"/>
</linearGradient>
<linearGradient id="paint10_linear" x1="71.6932" y1="36.7186" x2="69.1636" y2="34.0802" gradientUnits="userSpaceOnUse">
<stop stop-color="#42210B" stop-opacity="0"/>
<stop offset="1" stop-color="#42210B"/>
</linearGradient>
<linearGradient id="paint11_linear" x1="75.6198" y1="33.5622" x2="76.0567" y2="27.8996" gradientUnits="userSpaceOnUse">
<stop stop-color="#42210B" stop-opacity="0"/>
<stop offset="1" stop-color="#42210B"/>
</linearGradient>
<linearGradient id="paint12_linear" x1="72.0015" y1="34.3125" x2="72.3465" y2="29.8419" gradientUnits="userSpaceOnUse">
<stop stop-color="#42210B" stop-opacity="0"/>
<stop offset="1" stop-color="#42210B"/>
</linearGradient>
<linearGradient id="paint13_linear" x1="74.8617" y1="36.8643" x2="75.0696" y2="34.1692" gradientUnits="userSpaceOnUse">
<stop stop-color="#42210B" stop-opacity="0"/>
<stop offset="1" stop-color="#42210B"/>
</linearGradient>
<linearGradient id="paint14_linear" x1="78.4832" y1="44.7389" x2="103.835" y2="28.1827" gradientUnits="userSpaceOnUse">
<stop stop-color="#42210B" stop-opacity="0"/>
<stop offset="1" stop-color="#42210B"/>
</linearGradient>
<linearGradient id="paint15_linear" x1="75.3365" y1="47.6532" x2="97.4039" y2="33.242" gradientUnits="userSpaceOnUse">
<stop stop-color="#42210B" stop-opacity="0"/>
<stop offset="1" stop-color="#42210B"/>
</linearGradient>
<linearGradient id="paint16_linear" x1="79.9281" y1="77.5029" x2="63.4116" y2="60.9865" gradientUnits="userSpaceOnUse">
<stop stop-color="#42210B" stop-opacity="0"/>
<stop offset="1" stop-color="#42210B"/>
</linearGradient>
<linearGradient id="paint17_linear" x1="63.4356" y1="53.2256" x2="50.1688" y2="66.4923" gradientUnits="userSpaceOnUse">
<stop stop-color="#FFD945"/>
<stop offset="0.3043" stop-color="#FFCD3E"/>
<stop offset="0.8558" stop-color="#FFAD2B"/>
<stop offset="1" stop-color="#FFA325"/>
</linearGradient>
<linearGradient id="paint18_linear" x1="83.2628" y1="90.5177" x2="29.7531" y2="37.0079" gradientUnits="userSpaceOnUse">
<stop stop-color="#F82814" stop-opacity="0"/>
<stop offset="1" stop-color="#C0272D"/>
</linearGradient>
<linearGradient id="paint19_linear" x1="52.8642" y1="54.5847" x2="38.5845" y2="80.4538" gradientUnits="userSpaceOnUse">
<stop stop-color="#A57C52"/>
<stop offset="0.1339" stop-color="#A26C4A"/>
<stop offset="0.5155" stop-color="#994336"/>
<stop offset="0.8174" stop-color="#942A2A"/>
<stop offset="1" stop-color="#922125"/>
</linearGradient>
<linearGradient id="paint20_linear" x1="44.5939" y1="56.9844" x2="39.4201" y2="98.9959" gradientUnits="userSpaceOnUse">
<stop stop-color="#A57C52"/>
<stop offset="0.1339" stop-color="#A26C4A"/>
<stop offset="0.5155" stop-color="#994336"/>
<stop offset="0.8174" stop-color="#942A2A"/>
<stop offset="1" stop-color="#922125"/>
</linearGradient>
<linearGradient id="paint21_linear" x1="54.5236" y1="76.487" x2="51.9937" y2="73.8487" gradientUnits="userSpaceOnUse">
<stop stop-color="#42210B" stop-opacity="0"/>
<stop offset="1" stop-color="#42210B"/>
</linearGradient>
<linearGradient id="paint22_linear" x1="58.4203" y1="73.3554" x2="58.8574" y2="67.6926" gradientUnits="userSpaceOnUse">
<stop stop-color="#42210B" stop-opacity="0"/>
<stop offset="1" stop-color="#42210B"/>
</linearGradient>
<linearGradient id="paint23_linear" x1="54.802" y1="74.1053" x2="55.1472" y2="69.6349" gradientUnits="userSpaceOnUse">
<stop stop-color="#42210B" stop-opacity="0"/>
<stop offset="1" stop-color="#42210B"/>
</linearGradient>
<linearGradient id="paint24_linear" x1="57.662" y1="76.657" x2="57.8699" y2="73.9619" gradientUnits="userSpaceOnUse">
<stop stop-color="#42210B" stop-opacity="0"/>
<stop offset="1" stop-color="#42210B"/>
</linearGradient>
<linearGradient id="paint25_linear" x1="61.1727" y1="102.364" x2="39.2518" y2="80.4427" gradientUnits="userSpaceOnUse">
<stop stop-color="#42210B" stop-opacity="0"/>
<stop offset="1" stop-color="#42210B"/>
</linearGradient>
<radialGradient id="paint26_radial" cx="0" cy="0" r="1" gradientUnits="userSpaceOnUse" gradientTransform="translate(23.9034 93.7091) rotate(-135) scale(43.5634 20.7034)">
<stop stop-color="#FF6359"/>
<stop offset="0.4845" stop-color="#FF6157"/>
<stop offset="0.6591" stop-color="#FE5C50"/>
<stop offset="0.7835" stop-color="#FD5145"/>
<stop offset="0.884" stop-color="#FB4334"/>
<stop offset="0.9692" stop-color="#F9311E"/>
<stop offset="1" stop-color="#F82814"/>
</radialGradient>
<linearGradient id="paint27_linear" x1="52.8629" y1="108.811" x2="27.8715" y2="83.8191" gradientUnits="userSpaceOnUse">
<stop stop-color="#F82814" stop-opacity="0"/>
<stop offset="1" stop-color="#C0272D"/>
</linearGradient>
<linearGradient id="paint28_linear" x1="16.8361" y1="96.1603" x2="28.6889" y2="108.013" gradientUnits="userSpaceOnUse">
<stop stop-color="#A57C52"/>
<stop offset="0.1339" stop-color="#A26C4A"/>
<stop offset="0.5155" stop-color="#994336"/>
<stop offset="0.8174" stop-color="#942A2A"/>
<stop offset="1" stop-color="#922125"/>
</linearGradient>
<linearGradient id="paint29_linear" x1="126.019" y1="52.8748" x2="137.872" y2="64.7279" gradientUnits="userSpaceOnUse">
<stop stop-color="#A57C52"/>
<stop offset="0.1339" stop-color="#A26C4A"/>
<stop offset="0.5155" stop-color="#994336"/>
<stop offset="0.8174" stop-color="#942A2A"/>
<stop offset="1" stop-color="#922125"/>
</linearGradient>
<radialGradient id="paint30_radial" cx="0" cy="0" r="1" gradientUnits="userSpaceOnUse" gradientTransform="translate(122.034 61.2631) rotate(-135) scale(34.6442 16.4646)">
<stop stop-color="#FF6359"/>
<stop offset="0.4845" stop-color="#FF6157"/>
<stop offset="0.6591" stop-color="#FE5C50"/>
<stop offset="0.7835" stop-color="#FD5145"/>
<stop offset="0.884" stop-color="#FB4334"/>
<stop offset="0.9692" stop-color="#F9311E"/>
<stop offset="1" stop-color="#F82814"/>
</radialGradient>
<linearGradient id="paint31_linear" x1="150.74" y1="67.2853" x2="141.117" y2="64.4915" gradientUnits="userSpaceOnUse">
<stop stop-color="#F82814" stop-opacity="0"/>
<stop offset="1" stop-color="#C0272D"/>
</linearGradient>
<linearGradient id="paint32_linear" x1="125.849" y1="47.507" x2="111.57" y2="73.3761" gradientUnits="userSpaceOnUse">
<stop stop-color="#A57C52"/>
<stop offset="0.1339" stop-color="#A26C4A"/>
<stop offset="0.5155" stop-color="#994336"/>
<stop offset="0.8174" stop-color="#942A2A"/>
<stop offset="1" stop-color="#922125"/>
</linearGradient>
<linearGradient id="paint33_linear" x1="117.579" y1="49.907" x2="112.405" y2="91.9185" gradientUnits="userSpaceOnUse">
<stop stop-color="#A57C52"/>
<stop offset="0.1339" stop-color="#A26C4A"/>
<stop offset="0.5155" stop-color="#994336"/>
<stop offset="0.8174" stop-color="#942A2A"/>
<stop offset="1" stop-color="#922125"/>
</linearGradient>
<linearGradient id="paint34_linear" x1="127.485" y1="69.3872" x2="124.955" y2="66.7488" gradientUnits="userSpaceOnUse">
<stop stop-color="#42210B" stop-opacity="0"/>
<stop offset="1" stop-color="#42210B"/>
</linearGradient>
<linearGradient id="paint35_linear" x1="131.443" y1="66.2804" x2="131.88" y2="60.6175" gradientUnits="userSpaceOnUse">
<stop stop-color="#42210B" stop-opacity="0"/>
<stop offset="1" stop-color="#42210B"/>
</linearGradient>
<linearGradient id="paint36_linear" x1="127.824" y1="67.0303" x2="128.169" y2="62.5601" gradientUnits="userSpaceOnUse">
<stop stop-color="#42210B" stop-opacity="0"/>
<stop offset="1" stop-color="#42210B"/>
</linearGradient>
<linearGradient id="paint37_linear" x1="130.684" y1="69.582" x2="130.892" y2="66.8868" gradientUnits="userSpaceOnUse">
<stop stop-color="#42210B" stop-opacity="0"/>
<stop offset="1" stop-color="#42210B"/>
</linearGradient>
<linearGradient id="paint38_linear" x1="132.973" y1="93.0958" x2="113.837" y2="73.9606" gradientUnits="userSpaceOnUse">
<stop stop-color="#42210B" stop-opacity="0"/>
<stop offset="1" stop-color="#42210B"/>
</linearGradient>
<linearGradient id="paint39_linear" x1="113.817" y1="68.753" x2="100.55" y2="82.02" gradientUnits="userSpaceOnUse">
<stop stop-color="#BADA00"/>
<stop offset="0.2269" stop-color="#B0CE00"/>
<stop offset="0.6378" stop-color="#95AE00"/>
<stop offset="1" stop-color="#798C00"/>
</linearGradient>
<linearGradient id="paint40_linear" x1="126.472" y1="100.424" x2="93.6627" y2="67.6153" gradientUnits="userSpaceOnUse">
<stop stop-color="#798C00" stop-opacity="0"/>
<stop offset="0.6542" stop-color="#556100" stop-opacity="0.654"/>
<stop offset="1" stop-color="#464F00"/>
</linearGradient>
<linearGradient id="paint41_linear" x1="93.3268" y1="74.3351" x2="99.9253" y2="103.774" gradientUnits="userSpaceOnUse">
<stop stop-color="#A57C52"/>
<stop offset="0.1339" stop-color="#A26C4A"/>
<stop offset="0.5155" stop-color="#994336"/>
<stop offset="0.8174" stop-color="#942A2A"/>
<stop offset="1" stop-color="#922125"/>
</linearGradient>
<linearGradient id="paint42_linear" x1="92.388" y1="70.8498" x2="104.489" y2="94.5794" gradientUnits="userSpaceOnUse">
<stop stop-color="#A57C52"/>
<stop offset="0.1339" stop-color="#A26C4A"/>
<stop offset="0.5155" stop-color="#994336"/>
<stop offset="0.8174" stop-color="#942A2A"/>
<stop offset="1" stop-color="#922125"/>
</linearGradient>
<linearGradient id="paint43_linear" x1="88.1478" y1="74.2914" x2="82.8326" y2="68.748" gradientUnits="userSpaceOnUse">
<stop stop-color="#42210B" stop-opacity="0"/>
<stop offset="1" stop-color="#42210B"/>
</linearGradient>
<linearGradient id="paint44_linear" x1="85.6434" y1="78.6151" x2="81.4473" y2="74.239" gradientUnits="userSpaceOnUse">
<stop stop-color="#42210B" stop-opacity="0"/>
<stop offset="1" stop-color="#42210B"/>
</linearGradient>
<linearGradient id="paint45_linear" x1="90.7935" y1="78.031" x2="88.2635" y2="75.3927" gradientUnits="userSpaceOnUse">
<stop stop-color="#42210B" stop-opacity="0"/>
<stop offset="1" stop-color="#42210B"/>
</linearGradient>
<linearGradient id="paint46_linear" x1="94.7179" y1="74.9157" x2="95.1548" y2="69.253" gradientUnits="userSpaceOnUse">
<stop stop-color="#42210B" stop-opacity="0"/>
<stop offset="1" stop-color="#42210B"/>
</linearGradient>
<linearGradient id="paint47_linear" x1="91.0994" y1="75.6657" x2="91.4446" y2="71.1953" gradientUnits="userSpaceOnUse">
<stop stop-color="#42210B" stop-opacity="0"/>
<stop offset="1" stop-color="#42210B"/>
</linearGradient>
<linearGradient id="paint48_linear" x1="93.9596" y1="78.2175" x2="94.1675" y2="75.5223" gradientUnits="userSpaceOnUse">
<stop stop-color="#42210B" stop-opacity="0"/>
<stop offset="1" stop-color="#42210B"/>
</linearGradient>
<linearGradient id="paint49_linear" x1="88.7337" y1="87.6851" x2="63.718" y2="86.9505" gradientUnits="userSpaceOnUse">
<stop stop-color="#42210B" stop-opacity="0"/>
<stop offset="1" stop-color="#42210B"/>
</linearGradient>
<linearGradient id="paint50_linear" x1="92.3856" y1="88.4843" x2="70.7765" y2="87.8498" gradientUnits="userSpaceOnUse">
<stop stop-color="#42210B" stop-opacity="0"/>
<stop offset="1" stop-color="#42210B"/>
</linearGradient>
<linearGradient id="paint51_linear" x1="105.855" y1="111.16" x2="89.0135" y2="94.3185" gradientUnits="userSpaceOnUse">
<stop stop-color="#42210B" stop-opacity="0"/>
<stop offset="1" stop-color="#42210B"/>
</linearGradient>
<linearGradient id="paint52_linear" x1="82.5137" y1="94.5251" x2="76.15" y2="110.503" gradientUnits="userSpaceOnUse">
<stop stop-color="#FFDECF"/>
<stop offset="0.3791" stop-color="#FDC4B0"/>
<stop offset="0.7655" stop-color="#FBAE97"/>
<stop offset="1" stop-color="#FAA68E"/>
</linearGradient>
<linearGradient id="paint53_linear" x1="79.6664" y1="96.7966" x2="78.4235" y2="128.969" gradientUnits="userSpaceOnUse">
<stop stop-color="#FFDECF"/>
<stop offset="0.3791" stop-color="#FDC4B0"/>
<stop offset="0.7655" stop-color="#FBAE97"/>
<stop offset="1" stop-color="#FAA68E"/>
</linearGradient>
<linearGradient id="paint54_linear" x1="88.6394" y1="116.838" x2="77.1856" y2="105.384" gradientUnits="userSpaceOnUse">
<stop stop-color="#F82814" stop-opacity="0"/>
<stop offset="0.2454" stop-color="#F12817" stop-opacity="0.245"/>
<stop offset="0.6052" stop-color="#DD2820" stop-opacity="0.605"/>
<stop offset="1" stop-color="#C0272D"/>
</linearGradient>
<linearGradient id="paint55_linear" x1="80.2786" y1="102.428" x2="67.0116" y2="115.695" gradientUnits="userSpaceOnUse">
<stop stop-color="#FFD945"/>
<stop offset="0.3043" stop-color="#FFCD3E"/>
<stop offset="0.8558" stop-color="#FFAD2B"/>
<stop offset="1" stop-color="#FFA325"/>
</linearGradient>
<linearGradient id="paint56_linear" x1="86.689" y1="129.549" x2="55.4151" y2="98.2755" gradientUnits="userSpaceOnUse">
<stop stop-color="#F82814" stop-opacity="0"/>
<stop offset="1" stop-color="#C0272D"/>
</linearGradient>
<linearGradient id="paint57_linear" x1="55.5067" y1="123.387" x2="67.3598" y2="135.241" gradientUnits="userSpaceOnUse">
<stop stop-color="#A57C52"/>
<stop offset="0.1339" stop-color="#A26C4A"/>
<stop offset="0.5155" stop-color="#994336"/>
<stop offset="0.8174" stop-color="#942A2A"/>
<stop offset="1" stop-color="#922125"/>
</linearGradient>
<clipPath id="clip0">
<rect width="150" height="150" fill="white" transform="translate(0.701416 0.0158691)"/>
</clipPath>
</defs>
</svg>
