<svg width="151" height="150" viewBox="0 0 151 150" fill="none" xmlns="http://www.w3.org/2000/svg">
<g clip-path="url(#clip0)">
<path d="M145.73 17.7303H60.6143V50.353C60.6143 69.5521 145.73 69.5521 145.73 50.353V17.7303H145.73Z" fill="url(#paint0_linear)"/>
<path d="M145.729 17.7303C145.729 36.9294 60.6133 36.9294 60.6133 17.7303C60.6133 -1.46885 145.729 -1.46885 145.729 17.7303Z" fill="url(#paint1_linear)"/>
<path d="M127.928 16.1824C127.928 13.0621 122.113 11.0112 114.468 10.0298C99.8058 8.14741 82.9558 10.1983 82.9558 16.1824C82.9558 19.5374 85.1388 21.6562 93.6308 22.5386C108.183 24.0506 127.928 21.9318 127.928 16.1824Z" fill="url(#paint2_linear)"/>
<path d="M116.72 22.005C110.755 20.5791 106.42 16.2764 106.42 11.1894C106.42 10.5847 106.483 9.99172 106.601 9.4126C117.736 9.79524 127.928 12.0517 127.928 16.1823C127.928 18.9879 123.226 20.9285 116.72 22.005Z" fill="url(#paint3_linear)"/>
<path d="M114.603 10.0476C113.54 13.8994 107.699 16.8453 100.65 16.8453C94.1089 16.8453 88.608 14.3073 87.001 10.8629C94.6069 9.17528 105.831 8.90352 114.603 10.0476Z" fill="url(#paint4_linear)"/>
<path d="M78.4153 16.1823C78.4153 12.9196 84.7741 10.8264 92.9341 9.90226C96.5491 9.49285 99.8994 12.139 100.115 15.7708C100.123 15.8999 100.127 16.0296 100.127 16.1599C100.127 16.8184 100.028 17.4596 99.8409 18.0764C98.9526 21.004 96.0035 22.8084 92.9638 22.4652C84.7894 21.5431 78.4153 19.449 78.4153 16.1823Z" fill="url(#paint5_linear)"/>
<path d="M110.493 19.4552C111.933 16.5464 115.458 15.3555 118.367 16.7952L124.537 19.8493C121.751 21.1479 117.484 22.0464 112.65 22.5449C110.963 22.7185 109.741 20.9749 110.493 19.4552Z" fill="url(#paint6_linear)"/>
<g opacity="0.6">
<g opacity="0.6">
<g opacity="0.6">
<path opacity="0.6" d="M69.2545 16.6645C70.1078 16.6645 70.7995 15.9727 70.7995 15.1195C70.7995 14.2662 70.1078 13.5745 69.2545 13.5745C68.4012 13.5745 67.7095 14.2662 67.7095 15.1195C67.7095 15.9727 68.4012 16.6645 69.2545 16.6645Z" fill="url(#paint7_linear)"/>
<path opacity="0.6" d="M70.4331 21.1139C71.1067 21.1139 71.6528 20.5678 71.6528 19.8941C71.6528 19.2205 71.1067 18.6744 70.4331 18.6744C69.7595 18.6744 69.2134 19.2205 69.2134 19.8941C69.2134 20.5678 69.7595 21.1139 70.4331 21.1139Z" fill="url(#paint8_linear)"/>
<path opacity="0.6" d="M74.6616 17.2481C75.0677 17.2481 75.3969 16.9189 75.3969 16.5128C75.3969 16.1067 75.0677 15.7775 74.6616 15.7775C74.2555 15.7775 73.9263 16.1067 73.9263 16.5128C73.9263 16.9189 74.2555 17.2481 74.6616 17.2481Z" fill="url(#paint9_linear)"/>
</g>
<g opacity="0.6">
<path opacity="0.6" d="M132.862 21.7644C133.715 21.7644 134.407 21.0727 134.407 20.2194C134.407 19.3662 133.715 18.6744 132.862 18.6744C132.009 18.6744 131.317 19.3662 131.317 20.2194C131.317 21.0727 132.009 21.7644 132.862 21.7644Z" fill="url(#paint10_linear)"/>
<path opacity="0.6" d="M129.993 25.4342C130.667 25.4342 131.213 24.8881 131.213 24.2145C131.213 23.5408 130.667 22.9948 129.993 22.9948C129.32 22.9948 128.774 23.5408 128.774 24.2145C128.774 24.8881 129.32 25.4342 129.993 25.4342Z" fill="url(#paint11_linear)"/>
<path opacity="0.6" d="M135.31 25.9732C135.716 25.9732 136.045 25.6439 136.045 25.2379C136.045 24.8318 135.716 24.5026 135.31 24.5026C134.903 24.5026 134.574 24.8318 134.574 25.2379C134.574 25.6439 134.903 25.9732 135.31 25.9732Z" fill="url(#paint12_linear)"/>
</g>
<g opacity="0.6">
<path opacity="0.6" d="M75.4401 10.8C76.0705 10.8 76.5815 10.289 76.5815 9.65856C76.5815 9.02814 76.0705 8.51709 75.4401 8.51709C74.8096 8.51709 74.2986 9.02814 74.2986 9.65856C74.2986 10.289 74.8096 10.8 75.4401 10.8Z" fill="url(#paint13_linear)"/>
<path opacity="0.6" d="M73.3914 13.5615C73.8891 13.5615 74.2926 13.158 74.2926 12.6603C74.2926 12.1626 73.8891 11.7592 73.3914 11.7592C72.8937 11.7592 72.4902 12.1626 72.4902 12.6603C72.4902 13.158 72.8937 13.5615 73.3914 13.5615Z" fill="url(#paint14_linear)"/>
<path opacity="0.6" d="M77.3367 13.8663C77.6367 13.8663 77.8799 13.623 77.8799 13.323C77.8799 13.023 77.6367 12.7798 77.3367 12.7798C77.0367 12.7798 76.7935 13.023 76.7935 13.323C76.7935 13.623 77.0367 13.8663 77.3367 13.8663Z" fill="url(#paint15_linear)"/>
</g>
</g>
</g>
<path d="M112.025 64.4714L84.3753 36.8217C80.6241 32.4414 71.5044 29.5288 60.6135 28.0829V50.3532C60.6132 61.2926 88.2479 65.9985 112.025 64.4714Z" fill="url(#paint16_linear)"/>
<path d="M86.2116 41.4119H1.0957V74.0345C1.0957 93.2336 86.2116 93.2336 86.2116 74.0345V41.4119Z" fill="url(#paint17_linear)"/>
<path d="M86.2116 41.4119C86.2116 60.611 1.0957 60.611 1.0957 41.4119C1.0957 22.2128 86.2116 22.2131 86.2116 41.4119Z" fill="url(#paint18_linear)"/>
<path d="M18.8972 39.8643C18.8972 36.7499 24.691 34.7008 32.3149 33.7173C46.9778 31.8252 63.9863 33.8743 63.9863 39.8643C63.9863 43.1629 61.9113 45.2664 53.6225 46.1746C39.0325 47.7737 18.8972 45.6702 18.8972 39.8643Z" fill="url(#paint19_linear)"/>
<path d="M30.1055 45.687C36.0707 44.2611 40.4055 39.9584 40.4055 34.8714C40.4055 34.2667 40.3428 33.6737 40.2249 33.0946C29.0893 33.4773 18.8972 35.7337 18.8972 39.8643C18.8972 42.6696 23.5996 44.6105 30.1055 45.687Z" fill="url(#paint20_linear)"/>
<path d="M32.2222 33.7296C33.2851 37.5814 39.1263 40.5273 46.1745 40.5273C52.716 40.5273 58.2169 37.9893 59.8239 34.5449C52.2183 32.857 40.9939 32.5855 32.2222 33.7296Z" fill="url(#paint21_linear)"/>
<path d="M68.41 39.8643C68.41 36.6016 62.0511 34.5084 53.8911 33.5843C50.2761 33.1749 46.9258 35.821 46.71 39.4528C46.7023 39.5819 46.6985 39.7116 46.6985 39.8419C46.6985 40.5004 46.7973 41.1416 46.9844 41.7584C47.8726 44.686 50.8217 46.4904 53.8614 46.1472C62.0358 45.2248 68.41 43.1307 68.41 39.8643Z" fill="url(#paint22_linear)"/>
<path d="M36.3317 43.137C34.892 40.2282 31.3667 39.0373 28.4579 40.477L22.2876 43.5311C25.0744 44.8296 29.3405 45.7282 34.1752 46.2267C35.8617 46.4002 37.0841 44.6567 36.3317 43.137Z" fill="url(#paint23_linear)"/>
<g opacity="0.6">
<g opacity="0.6">
<g opacity="0.6">
<path opacity="0.6" d="M9.73641 40.346C10.5897 40.346 11.2814 39.6543 11.2814 38.801C11.2814 37.9477 10.5897 37.256 9.73641 37.256C8.88313 37.256 8.19141 37.9477 8.19141 38.801C8.19141 39.6543 8.88313 40.346 9.73641 40.346Z" fill="url(#paint24_linear)"/>
<path opacity="0.6" d="M10.9155 44.7954C11.5891 44.7954 12.1352 44.2493 12.1352 43.5757C12.1352 42.902 11.5891 42.356 10.9155 42.356C10.2419 42.356 9.6958 42.902 9.6958 43.5757C9.6958 44.2493 10.2419 44.7954 10.9155 44.7954Z" fill="url(#paint25_linear)"/>
<path opacity="0.6" d="M15.1435 40.9296C15.5496 40.9296 15.8788 40.6004 15.8788 40.1943C15.8788 39.7882 15.5496 39.459 15.1435 39.459C14.7374 39.459 14.4082 39.7882 14.4082 40.1943C14.4082 40.6004 14.7374 40.9296 15.1435 40.9296Z" fill="url(#paint26_linear)"/>
</g>
<g opacity="0.6">
<path opacity="0.6" d="M73.3443 45.4463C74.1976 45.4463 74.8893 44.7546 74.8893 43.9013C74.8893 43.048 74.1976 42.3563 73.3443 42.3563C72.491 42.3563 71.7993 43.048 71.7993 43.9013C71.7993 44.7546 72.491 45.4463 73.3443 45.4463Z" fill="url(#paint27_linear)"/>
<path opacity="0.6" d="M70.4758 49.116C71.1494 49.116 71.6955 48.57 71.6955 47.8963C71.6955 47.2227 71.1494 46.6766 70.4758 46.6766C69.8022 46.6766 69.2561 47.2227 69.2561 47.8963C69.2561 48.57 69.8022 49.116 70.4758 49.116Z" fill="url(#paint28_linear)"/>
<path opacity="0.6" d="M75.7919 49.6548C76.198 49.6548 76.5272 49.3256 76.5272 48.9195C76.5272 48.5134 76.198 48.1842 75.7919 48.1842C75.3858 48.1842 75.0566 48.5134 75.0566 48.9195C75.0566 49.3256 75.3858 49.6548 75.7919 49.6548Z" fill="url(#paint29_linear)"/>
</g>
<g opacity="0.6">
<path opacity="0.6" d="M15.922 34.4819C16.5524 34.4819 17.0635 33.9709 17.0635 33.3404C17.0635 32.71 16.5524 32.199 15.922 32.199C15.2916 32.199 14.7805 32.71 14.7805 33.3404C14.7805 33.9709 15.2916 34.4819 15.922 34.4819Z" fill="url(#paint30_linear)"/>
<path opacity="0.6" d="M13.8733 37.2434C14.371 37.2434 14.7745 36.8399 14.7745 36.3422C14.7745 35.8445 14.371 35.441 13.8733 35.441C13.3756 35.441 12.9722 35.8445 12.9722 36.3422C12.9722 36.8399 13.3756 37.2434 13.8733 37.2434Z" fill="url(#paint31_linear)"/>
<path opacity="0.6" d="M17.8186 37.5478C18.1186 37.5478 18.3619 37.3046 18.3619 37.0045C18.3619 36.7045 18.1186 36.4613 17.8186 36.4613C17.5186 36.4613 17.2754 36.7045 17.2754 37.0045C17.2754 37.3046 17.5186 37.5478 17.8186 37.5478Z" fill="url(#paint32_linear)"/>
</g>
</g>
</g>
<path d="M151.096 65.0942H65.9797V97.7169C65.9797 116.916 151.096 116.916 151.096 97.7169V65.0942Z" fill="url(#paint33_linear)"/>
<path d="M151.096 65.0942C151.096 84.2933 65.9797 84.2933 65.9797 65.0942C65.9797 45.895 151.096 45.895 151.096 65.0942Z" fill="url(#paint34_linear)"/>
<path d="M83.7812 63.5462C83.7812 66.6638 89.5874 68.7141 97.2233 69.6965C111.886 71.5829 130.322 69.5329 130.322 63.5462C130.322 60.1544 126.422 58.0262 117.798 57.1615C103.274 55.7053 83.7812 57.8335 83.7812 63.5462Z" fill="url(#paint35_linear)"/>
<path d="M94.9895 57.7235C100.955 59.1494 105.289 63.452 105.289 68.5391C105.289 69.1438 105.227 69.7368 105.109 70.3159C93.9733 69.9332 83.7812 67.6768 83.7812 63.5462C83.7812 60.7406 88.4839 58.8 94.9895 57.7235Z" fill="url(#paint36_linear)"/>
<path d="M97.1062 69.681C98.1691 65.8292 104.01 62.8833 111.059 62.8833C117.6 62.8833 123.101 65.4212 124.708 68.8657C117.102 70.5533 105.878 70.8251 97.1062 69.681Z" fill="url(#paint37_linear)"/>
<path d="M133.294 63.5462C133.294 66.8088 126.936 68.9021 118.776 69.8262C115.161 70.2356 111.81 67.5894 111.594 63.9576C111.587 63.8285 111.583 63.6988 111.583 63.5685C111.583 62.91 111.682 62.2688 111.869 61.6521C112.757 58.7244 115.706 56.92 118.746 57.2632C126.92 58.1853 133.294 60.2797 133.294 63.5462Z" fill="url(#paint38_linear)"/>
<path d="M115.859 60.2732C117.299 63.182 120.824 64.3729 123.733 62.9332L129.904 59.8791C127.117 58.5806 122.851 57.682 118.016 57.1835C116.329 57.01 115.107 58.7538 115.859 60.2732Z" fill="url(#paint39_linear)"/>
<g opacity="0.6">
<g opacity="0.6">
<g opacity="0.6">
<path opacity="0.6" d="M74.6204 64.0282C75.4737 64.0282 76.1654 63.3365 76.1654 62.4832C76.1654 61.6299 75.4737 60.9382 74.6204 60.9382C73.7672 60.9382 73.0754 61.6299 73.0754 62.4832C73.0754 63.3365 73.7672 64.0282 74.6204 64.0282Z" fill="url(#paint40_linear)"/>
<path opacity="0.6" d="M75.7995 68.4776C76.4732 68.4776 77.0192 67.9315 77.0192 67.2579C77.0192 66.5843 76.4732 66.0382 75.7995 66.0382C75.1259 66.0382 74.5798 66.5843 74.5798 67.2579C74.5798 67.9315 75.1259 68.4776 75.7995 68.4776Z" fill="url(#paint41_linear)"/>
<path opacity="0.6" d="M80.0275 64.6118C80.4336 64.6118 80.7628 64.2826 80.7628 63.8765C80.7628 63.4704 80.4336 63.1412 80.0275 63.1412C79.6214 63.1412 79.2922 63.4704 79.2922 63.8765C79.2922 64.2826 79.6214 64.6118 80.0275 64.6118Z" fill="url(#paint42_linear)"/>
</g>
<g opacity="0.6">
<path opacity="0.6" d="M138.229 69.1282C139.082 69.1282 139.774 68.4365 139.774 67.5832C139.774 66.7299 139.082 66.0382 138.229 66.0382C137.375 66.0382 136.684 66.7299 136.684 67.5832C136.684 68.4365 137.375 69.1282 138.229 69.1282Z" fill="url(#paint43_linear)"/>
<path opacity="0.6" d="M135.36 72.7979C136.033 72.7979 136.58 72.2519 136.58 71.5782C136.58 70.9046 136.033 70.3585 135.36 70.3585C134.686 70.3585 134.14 70.9046 134.14 71.5782C134.14 72.2519 134.686 72.7979 135.36 72.7979Z" fill="url(#paint44_linear)"/>
<path opacity="0.6" d="M140.676 73.3369C141.082 73.3369 141.411 73.0077 141.411 72.6016C141.411 72.1955 141.082 71.8663 140.676 71.8663C140.27 71.8663 139.94 72.1955 139.94 72.6016C139.94 73.0077 140.27 73.3369 140.676 73.3369Z" fill="url(#paint45_linear)"/>
</g>
<g opacity="0.6">
<path opacity="0.6" d="M80.806 58.1638C81.4365 58.1638 81.9475 57.6528 81.9475 57.0223C81.9475 56.3919 81.4365 55.8809 80.806 55.8809C80.1756 55.8809 79.6646 56.3919 79.6646 57.0223C79.6646 57.6528 80.1756 58.1638 80.806 58.1638Z" fill="url(#paint46_linear)"/>
<path opacity="0.6" d="M78.7574 60.9253C79.2551 60.9253 79.6586 60.5218 79.6586 60.0241C79.6586 59.5264 79.2551 59.1229 78.7574 59.1229C78.2597 59.1229 77.8562 59.5264 77.8562 60.0241C77.8562 60.5218 78.2597 60.9253 78.7574 60.9253Z" fill="url(#paint47_linear)"/>
<path opacity="0.6" d="M82.7027 61.2297C83.0027 61.2297 83.2459 60.9864 83.2459 60.6864C83.2459 60.3864 83.0027 60.1432 82.7027 60.1432C82.4026 60.1432 82.1594 60.3864 82.1594 60.6864C82.1594 60.9864 82.4026 61.2297 82.7027 61.2297Z" fill="url(#paint48_linear)"/>
</g>
</g>
</g>
<path d="M65.9797 85.9128V97.7167C65.9797 107.578 88.4365 112.374 110.28 112.105L92.9342 94.7584C88.615 90.094 78.1141 87.1461 65.9797 85.9128Z" fill="url(#paint49_linear)"/>
<path d="M95.0339 99.647H9.91797V132.27C9.91797 151.469 95.0339 151.469 95.0339 132.27V99.647Z" fill="url(#paint50_linear)"/>
<path d="M95.0339 99.647C95.0339 118.846 9.91797 118.846 9.91797 99.647C9.91797 80.4479 95.0339 80.4479 95.0339 99.647Z" fill="url(#paint51_linear)"/>
<path d="M77.2322 98.099C77.2322 101.215 71.4322 103.265 63.8025 104.248C49.1092 105.169 30.6604 104.088 30.6604 98.099C30.6604 94.7546 34.401 92.6384 42.8551 91.7514C48.8572 91.1214 55.753 91.1108 61.7854 91.7193C63.8669 91.9293 65.5489 92.684 67.353 93.0414C69.8066 93.5275 72.233 93.6793 73.8575 94.4384C75.9736 95.4272 77.2322 96.6475 77.2322 98.099Z" fill="url(#paint52_linear)"/>
<path d="M66.0244 92.2765C60.0591 93.7024 55.7244 98.005 55.7244 103.092C55.7244 103.697 55.787 104.29 55.905 104.869C67.0405 104.486 77.2326 102.229 77.2326 98.0988C77.2326 95.2936 72.5303 93.353 66.0244 92.2765Z" fill="url(#paint53_linear)"/>
<path d="M63.9074 104.234C62.8445 100.382 57.0033 97.4362 49.9551 97.4362C43.4136 97.4362 37.9127 99.9741 36.3057 103.419C43.9113 105.106 55.1357 105.378 63.9074 104.234Z" fill="url(#paint54_linear)"/>
<path d="M27.7195 98.099C27.7195 101.362 34.0783 103.455 42.2383 104.379C45.8533 104.788 49.2036 102.142 49.4195 98.5105C49.4271 98.3814 49.4309 98.2517 49.4309 98.1214C49.4309 97.4629 49.3321 96.8217 49.1451 96.2049C48.2568 93.2773 45.3077 91.4729 42.268 91.8161C34.0936 92.7382 27.7195 94.8326 27.7195 98.099Z" fill="url(#paint55_linear)"/>
<path d="M59.7981 94.8265C61.2378 97.7353 64.7631 98.9262 67.6719 97.4865L73.8422 94.4323C71.0554 93.1338 66.7892 92.2353 61.9545 91.7368C60.2681 91.5629 59.0457 93.3068 59.7981 94.8265Z" fill="url(#paint56_linear)"/>
<g opacity="0.6">
<g opacity="0.6">
<g opacity="0.6">
<path opacity="0.6" d="M18.5587 98.5812C19.412 98.5812 20.1037 97.8895 20.1037 97.0362C20.1037 96.1829 19.412 95.4912 18.5587 95.4912C17.7054 95.4912 17.0137 96.1829 17.0137 97.0362C17.0137 97.8895 17.7054 98.5812 18.5587 98.5812Z" fill="url(#paint57_linear)"/>
<path opacity="0.6" d="M19.7378 103.031C20.4114 103.031 20.9575 102.485 20.9575 101.811C20.9575 101.137 20.4114 100.591 19.7378 100.591C19.0641 100.591 18.5181 101.137 18.5181 101.811C18.5181 102.485 19.0641 103.031 19.7378 103.031Z" fill="url(#paint58_linear)"/>
<path opacity="0.6" d="M23.9658 99.1648C24.3719 99.1648 24.7011 98.8356 24.7011 98.4295C24.7011 98.0234 24.3719 97.6942 23.9658 97.6942C23.5597 97.6942 23.2305 98.0234 23.2305 98.4295C23.2305 98.8356 23.5597 99.1648 23.9658 99.1648Z" fill="url(#paint59_linear)"/>
</g>
<g opacity="0.6">
<path opacity="0.6" d="M82.1666 103.681C83.0199 103.681 83.7116 102.989 83.7116 102.136C83.7116 101.283 83.0199 100.591 82.1666 100.591C81.3133 100.591 80.6216 101.283 80.6216 102.136C80.6216 102.989 81.3133 103.681 82.1666 103.681Z" fill="url(#paint60_linear)"/>
<path opacity="0.6" d="M79.2981 107.351C79.9717 107.351 80.5178 106.805 80.5178 106.131C80.5178 105.458 79.9717 104.911 79.2981 104.911C78.6245 104.911 78.0784 105.458 78.0784 106.131C78.0784 106.805 78.6245 107.351 79.2981 107.351Z" fill="url(#paint61_linear)"/>
<path opacity="0.6" d="M84.6142 107.89C85.0203 107.89 85.3495 107.561 85.3495 107.155C85.3495 106.749 85.0203 106.419 84.6142 106.419C84.2081 106.419 83.8789 106.749 83.8789 107.155C83.8789 107.561 84.2081 107.89 84.6142 107.89Z" fill="url(#paint62_linear)"/>
</g>
<g opacity="0.6">
<path opacity="0.6" d="M24.7443 92.7168C25.3747 92.7168 25.8857 92.2057 25.8857 91.5753C25.8857 90.9449 25.3747 90.4338 24.7443 90.4338C24.1138 90.4338 23.6028 90.9449 23.6028 91.5753C23.6028 92.2057 24.1138 92.7168 24.7443 92.7168Z" fill="url(#paint63_linear)"/>
<path opacity="0.6" d="M22.6956 95.4783C23.1933 95.4783 23.5968 95.0748 23.5968 94.5771C23.5968 94.0794 23.1933 93.6759 22.6956 93.6759C22.1979 93.6759 21.7944 94.0794 21.7944 94.5771C21.7944 95.0748 22.1979 95.4783 22.6956 95.4783Z" fill="url(#paint64_linear)"/>
<path opacity="0.6" d="M26.6409 95.783C26.9409 95.783 27.1841 95.5398 27.1841 95.2398C27.1841 94.9398 26.9409 94.6965 26.6409 94.6965C26.3409 94.6965 26.0977 94.9398 26.0977 95.2398C26.0977 95.5398 26.3409 95.783 26.6409 95.783Z" fill="url(#paint65_linear)"/>
</g>
</g>
</g>
</g>
<defs>
<linearGradient id="paint0_linear" x1="95.9925" y1="27.7583" x2="115.592" y2="48.5462" gradientUnits="userSpaceOnUse">
<stop stop-color="#464F00"/>
<stop offset="0.2883" stop-color="#454518"/>
<stop offset="0.7468" stop-color="#443738"/>
<stop offset="1" stop-color="#433244"/>
</linearGradient>
<linearGradient id="paint1_linear" x1="99.7486" y1="4.94557" x2="110.102" y2="43.6194" gradientUnits="userSpaceOnUse">
<stop stop-color="#F8F6FB"/>
<stop offset="1" stop-color="#EFDCFB"/>
</linearGradient>
<linearGradient id="paint2_linear" x1="105.553" y1="16.7798" x2="108.053" y2="22.368" gradientUnits="userSpaceOnUse">
<stop stop-color="#FF6359"/>
<stop offset="0.2243" stop-color="#FE5B50"/>
<stop offset="0.5952" stop-color="#FC4637"/>
<stop offset="1" stop-color="#F82814"/>
</linearGradient>
<linearGradient id="paint3_linear" x1="114.798" y1="12.075" x2="121.122" y2="19.575" gradientUnits="userSpaceOnUse">
<stop stop-color="#FFA936"/>
<stop offset="0.4112" stop-color="#FF8548"/>
<stop offset="0.7781" stop-color="#FF6C54"/>
<stop offset="1" stop-color="#FF6359"/>
</linearGradient>
<linearGradient id="paint4_linear" x1="99.4072" y1="8.16028" x2="104.26" y2="16.2485" gradientUnits="userSpaceOnUse">
<stop stop-color="#BADA00"/>
<stop offset="0.2269" stop-color="#B0CE00"/>
<stop offset="0.6378" stop-color="#95AE00"/>
<stop offset="1" stop-color="#798C00"/>
</linearGradient>
<linearGradient id="paint5_linear" x1="87.4494" y1="13.2123" x2="93.6259" y2="21.1534" gradientUnits="userSpaceOnUse">
<stop stop-color="#FFD945"/>
<stop offset="0.3043" stop-color="#FFCD3E"/>
<stop offset="0.8558" stop-color="#FFAD2B"/>
<stop offset="1" stop-color="#FFA325"/>
</linearGradient>
<linearGradient id="paint6_linear" x1="113.031" y1="20.3499" x2="120.716" y2="17.6999" gradientUnits="userSpaceOnUse">
<stop stop-color="#FFDECF"/>
<stop offset="0.3791" stop-color="#FDC4B0"/>
<stop offset="0.7655" stop-color="#FBAE97"/>
<stop offset="1" stop-color="#FAA68E"/>
</linearGradient>
<linearGradient id="paint7_linear" x1="71.4367" y1="15.4572" x2="64.1914" y2="14.4622" gradientUnits="userSpaceOnUse">
<stop stop-color="#EFDCFB" stop-opacity="0"/>
<stop offset="0.0287" stop-color="#E9D6F7" stop-opacity="0.029"/>
<stop offset="0.2203" stop-color="#C5B5DE" stop-opacity="0.22"/>
<stop offset="0.4138" stop-color="#AA9BCB" stop-opacity="0.414"/>
<stop offset="0.6078" stop-color="#9688BD" stop-opacity="0.608"/>
<stop offset="0.8028" stop-color="#8A7DB5" stop-opacity="0.803"/>
<stop offset="1" stop-color="#8679B2"/>
</linearGradient>
<linearGradient id="paint8_linear" x1="72.1238" y1="20.1656" x2="66.4038" y2="19.3799" gradientUnits="userSpaceOnUse">
<stop stop-color="#EFDCFB" stop-opacity="0"/>
<stop offset="0.0287" stop-color="#E9D6F7" stop-opacity="0.029"/>
<stop offset="0.2203" stop-color="#C5B5DE" stop-opacity="0.22"/>
<stop offset="0.4138" stop-color="#AA9BCB" stop-opacity="0.414"/>
<stop offset="0.6078" stop-color="#9688BD" stop-opacity="0.608"/>
<stop offset="0.8028" stop-color="#8A7DB5" stop-opacity="0.803"/>
<stop offset="1" stop-color="#8679B2"/>
</linearGradient>
<linearGradient id="paint9_linear" x1="75.6227" y1="16.6843" x2="72.1744" y2="16.2106" gradientUnits="userSpaceOnUse">
<stop stop-color="#EFDCFB" stop-opacity="0"/>
<stop offset="0.0287" stop-color="#E9D6F7" stop-opacity="0.029"/>
<stop offset="0.2203" stop-color="#C5B5DE" stop-opacity="0.22"/>
<stop offset="0.4138" stop-color="#AA9BCB" stop-opacity="0.414"/>
<stop offset="0.6078" stop-color="#9688BD" stop-opacity="0.608"/>
<stop offset="0.8028" stop-color="#8A7DB5" stop-opacity="0.803"/>
<stop offset="1" stop-color="#8679B2"/>
</linearGradient>
<linearGradient id="paint10_linear" x1="133.877" y1="22.468" x2="129.929" y2="16.3081" gradientUnits="userSpaceOnUse">
<stop stop-color="#EFDCFB" stop-opacity="0"/>
<stop offset="0.0287" stop-color="#E9D6F7" stop-opacity="0.029"/>
<stop offset="0.2203" stop-color="#C5B5DE" stop-opacity="0.22"/>
<stop offset="0.4138" stop-color="#AA9BCB" stop-opacity="0.414"/>
<stop offset="0.6078" stop-color="#9688BD" stop-opacity="0.608"/>
<stop offset="0.8028" stop-color="#8A7DB5" stop-opacity="0.803"/>
<stop offset="1" stop-color="#8679B2"/>
</linearGradient>
<linearGradient id="paint11_linear" x1="130.74" y1="26.0482" x2="127.624" y2="21.1854" gradientUnits="userSpaceOnUse">
<stop stop-color="#EFDCFB" stop-opacity="0"/>
<stop offset="0.0287" stop-color="#E9D6F7" stop-opacity="0.029"/>
<stop offset="0.2203" stop-color="#C5B5DE" stop-opacity="0.22"/>
<stop offset="0.4138" stop-color="#AA9BCB" stop-opacity="0.414"/>
<stop offset="0.6078" stop-color="#9688BD" stop-opacity="0.608"/>
<stop offset="0.8028" stop-color="#8A7DB5" stop-opacity="0.803"/>
<stop offset="1" stop-color="#8679B2"/>
</linearGradient>
<linearGradient id="paint12_linear" x1="135.661" y1="26.4505" x2="133.782" y2="23.5187" gradientUnits="userSpaceOnUse">
<stop stop-color="#EFDCFB" stop-opacity="0"/>
<stop offset="0.0287" stop-color="#E9D6F7" stop-opacity="0.029"/>
<stop offset="0.2203" stop-color="#C5B5DE" stop-opacity="0.22"/>
<stop offset="0.4138" stop-color="#AA9BCB" stop-opacity="0.414"/>
<stop offset="0.6078" stop-color="#9688BD" stop-opacity="0.608"/>
<stop offset="0.8028" stop-color="#8A7DB5" stop-opacity="0.803"/>
<stop offset="1" stop-color="#8679B2"/>
</linearGradient>
<linearGradient id="paint13_linear" x1="76.2848" y1="11.3672" x2="73.2595" y2="6.88681" gradientUnits="userSpaceOnUse">
<stop stop-color="#EFDCFB" stop-opacity="0"/>
<stop offset="0.0287" stop-color="#E9D6F7" stop-opacity="0.029"/>
<stop offset="0.2203" stop-color="#C5B5DE" stop-opacity="0.22"/>
<stop offset="0.4138" stop-color="#AA9BCB" stop-opacity="0.414"/>
<stop offset="0.6078" stop-color="#9688BD" stop-opacity="0.608"/>
<stop offset="0.8028" stop-color="#8A7DB5" stop-opacity="0.803"/>
<stop offset="1" stop-color="#8679B2"/>
</linearGradient>
<linearGradient id="paint14_linear" x1="74.0313" y1="14.0673" x2="71.6429" y2="10.5305" gradientUnits="userSpaceOnUse">
<stop stop-color="#EFDCFB" stop-opacity="0"/>
<stop offset="0.0287" stop-color="#E9D6F7" stop-opacity="0.029"/>
<stop offset="0.2203" stop-color="#C5B5DE" stop-opacity="0.22"/>
<stop offset="0.4138" stop-color="#AA9BCB" stop-opacity="0.414"/>
<stop offset="0.6078" stop-color="#9688BD" stop-opacity="0.608"/>
<stop offset="0.8028" stop-color="#8A7DB5" stop-opacity="0.803"/>
<stop offset="1" stop-color="#8679B2"/>
</linearGradient>
<linearGradient id="paint15_linear" x1="77.6735" y1="14.2774" x2="76.2338" y2="12.1449" gradientUnits="userSpaceOnUse">
<stop stop-color="#EFDCFB" stop-opacity="0"/>
<stop offset="0.0287" stop-color="#E9D6F7" stop-opacity="0.029"/>
<stop offset="0.2203" stop-color="#C5B5DE" stop-opacity="0.22"/>
<stop offset="0.4138" stop-color="#AA9BCB" stop-opacity="0.414"/>
<stop offset="0.6078" stop-color="#9688BD" stop-opacity="0.608"/>
<stop offset="0.8028" stop-color="#8A7DB5" stop-opacity="0.803"/>
<stop offset="1" stop-color="#8679B2"/>
</linearGradient>
<linearGradient id="paint16_linear" x1="101.225" y1="73.6964" x2="66.6544" y2="39.1258" gradientUnits="userSpaceOnUse">
<stop offset="0.001" stop-color="#433244" stop-opacity="0"/>
<stop offset="0.4841" stop-color="#362637" stop-opacity="0.484"/>
<stop offset="1" stop-color="#2D1E2E"/>
</linearGradient>
<linearGradient id="paint17_linear" x1="36.4739" y1="51.4398" x2="56.0742" y2="72.2277" gradientUnits="userSpaceOnUse">
<stop stop-color="#464F00"/>
<stop offset="0.2883" stop-color="#454518"/>
<stop offset="0.7468" stop-color="#443738"/>
<stop offset="1" stop-color="#433244"/>
</linearGradient>
<linearGradient id="paint18_linear" x1="40.231" y1="28.6272" x2="50.5845" y2="67.3013" gradientUnits="userSpaceOnUse">
<stop stop-color="#F8F6FB"/>
<stop offset="1" stop-color="#EFDCFB"/>
</linearGradient>
<linearGradient id="paint19_linear" x1="42.431" y1="43.1482" x2="44.0487" y2="48.5893" gradientUnits="userSpaceOnUse">
<stop stop-color="#FF6359"/>
<stop offset="0.2243" stop-color="#FE5B50"/>
<stop offset="0.5952" stop-color="#FC4637"/>
<stop offset="1" stop-color="#F82814"/>
</linearGradient>
<linearGradient id="paint20_linear" x1="29.891" y1="37.4111" x2="34.4499" y2="45.9405" gradientUnits="userSpaceOnUse">
<stop stop-color="#FFA936"/>
<stop offset="0.4112" stop-color="#FF8548"/>
<stop offset="0.7781" stop-color="#FF6C54"/>
<stop offset="1" stop-color="#FF6359"/>
</linearGradient>
<linearGradient id="paint21_linear" x1="46.3454" y1="34.9105" x2="48.5513" y2="39.6164" gradientUnits="userSpaceOnUse">
<stop stop-color="#BADA00"/>
<stop offset="0.2269" stop-color="#B0CE00"/>
<stop offset="0.6378" stop-color="#95AE00"/>
<stop offset="1" stop-color="#798C00"/>
</linearGradient>
<linearGradient id="paint22_linear" x1="55.8211" y1="36.804" x2="60.8211" y2="46.951" gradientUnits="userSpaceOnUse">
<stop stop-color="#FFD945"/>
<stop offset="0.3043" stop-color="#FFCD3E"/>
<stop offset="0.8558" stop-color="#FFAD2B"/>
<stop offset="1" stop-color="#FFA325"/>
</linearGradient>
<linearGradient id="paint23_linear" x1="28.2299" y1="41.3493" x2="30.877" y2="46.2023" gradientUnits="userSpaceOnUse">
<stop stop-color="#FFDECF"/>
<stop offset="0.3791" stop-color="#FDC4B0"/>
<stop offset="0.7655" stop-color="#FBAE97"/>
<stop offset="1" stop-color="#FAA68E"/>
</linearGradient>
<linearGradient id="paint24_linear" x1="11.9047" y1="39.1275" x2="4.65933" y2="38.1324" gradientUnits="userSpaceOnUse">
<stop stop-color="#EFDCFB" stop-opacity="0"/>
<stop offset="0.0287" stop-color="#E9D6F7" stop-opacity="0.029"/>
<stop offset="0.2203" stop-color="#C5B5DE" stop-opacity="0.22"/>
<stop offset="0.4138" stop-color="#AA9BCB" stop-opacity="0.414"/>
<stop offset="0.6078" stop-color="#9688BD" stop-opacity="0.608"/>
<stop offset="0.8028" stop-color="#8A7DB5" stop-opacity="0.803"/>
<stop offset="1" stop-color="#8679B2"/>
</linearGradient>
<linearGradient id="paint25_linear" x1="12.5921" y1="43.836" x2="6.87212" y2="43.0504" gradientUnits="userSpaceOnUse">
<stop stop-color="#EFDCFB" stop-opacity="0"/>
<stop offset="0.0287" stop-color="#E9D6F7" stop-opacity="0.029"/>
<stop offset="0.2203" stop-color="#C5B5DE" stop-opacity="0.22"/>
<stop offset="0.4138" stop-color="#AA9BCB" stop-opacity="0.414"/>
<stop offset="0.6078" stop-color="#9688BD" stop-opacity="0.608"/>
<stop offset="0.8028" stop-color="#8A7DB5" stop-opacity="0.803"/>
<stop offset="1" stop-color="#8679B2"/>
</linearGradient>
<linearGradient id="paint26_linear" x1="16.0908" y1="40.3548" x2="12.6425" y2="39.8811" gradientUnits="userSpaceOnUse">
<stop stop-color="#EFDCFB" stop-opacity="0"/>
<stop offset="0.0287" stop-color="#E9D6F7" stop-opacity="0.029"/>
<stop offset="0.2203" stop-color="#C5B5DE" stop-opacity="0.22"/>
<stop offset="0.4138" stop-color="#AA9BCB" stop-opacity="0.414"/>
<stop offset="0.6078" stop-color="#9688BD" stop-opacity="0.608"/>
<stop offset="0.8028" stop-color="#8A7DB5" stop-opacity="0.803"/>
<stop offset="1" stop-color="#8679B2"/>
</linearGradient>
<linearGradient id="paint27_linear" x1="74.3313" y1="46.1686" x2="70.3838" y2="40.0087" gradientUnits="userSpaceOnUse">
<stop stop-color="#EFDCFB" stop-opacity="0"/>
<stop offset="0.0287" stop-color="#E9D6F7" stop-opacity="0.029"/>
<stop offset="0.2203" stop-color="#C5B5DE" stop-opacity="0.22"/>
<stop offset="0.4138" stop-color="#AA9BCB" stop-opacity="0.414"/>
<stop offset="0.6078" stop-color="#9688BD" stop-opacity="0.608"/>
<stop offset="0.8028" stop-color="#8A7DB5" stop-opacity="0.803"/>
<stop offset="1" stop-color="#8679B2"/>
</linearGradient>
<linearGradient id="paint28_linear" x1="71.1942" y1="49.7488" x2="68.078" y2="44.886" gradientUnits="userSpaceOnUse">
<stop stop-color="#EFDCFB" stop-opacity="0"/>
<stop offset="0.0287" stop-color="#E9D6F7" stop-opacity="0.029"/>
<stop offset="0.2203" stop-color="#C5B5DE" stop-opacity="0.22"/>
<stop offset="0.4138" stop-color="#AA9BCB" stop-opacity="0.414"/>
<stop offset="0.6078" stop-color="#9688BD" stop-opacity="0.608"/>
<stop offset="0.8028" stop-color="#8A7DB5" stop-opacity="0.803"/>
<stop offset="1" stop-color="#8679B2"/>
</linearGradient>
<linearGradient id="paint29_linear" x1="76.1152" y1="50.1511" x2="74.2363" y2="47.2193" gradientUnits="userSpaceOnUse">
<stop stop-color="#EFDCFB" stop-opacity="0"/>
<stop offset="0.0287" stop-color="#E9D6F7" stop-opacity="0.029"/>
<stop offset="0.2203" stop-color="#C5B5DE" stop-opacity="0.22"/>
<stop offset="0.4138" stop-color="#AA9BCB" stop-opacity="0.414"/>
<stop offset="0.6078" stop-color="#9688BD" stop-opacity="0.608"/>
<stop offset="0.8028" stop-color="#8A7DB5" stop-opacity="0.803"/>
<stop offset="1" stop-color="#8679B2"/>
</linearGradient>
<linearGradient id="paint30_linear" x1="16.7455" y1="35.0785" x2="13.7202" y2="30.5981" gradientUnits="userSpaceOnUse">
<stop stop-color="#EFDCFB" stop-opacity="0"/>
<stop offset="0.0287" stop-color="#E9D6F7" stop-opacity="0.029"/>
<stop offset="0.2203" stop-color="#C5B5DE" stop-opacity="0.22"/>
<stop offset="0.4138" stop-color="#AA9BCB" stop-opacity="0.414"/>
<stop offset="0.6078" stop-color="#9688BD" stop-opacity="0.608"/>
<stop offset="0.8028" stop-color="#8A7DB5" stop-opacity="0.803"/>
<stop offset="1" stop-color="#8679B2"/>
</linearGradient>
<linearGradient id="paint31_linear" x1="14.492" y1="37.7786" x2="12.1036" y2="34.2419" gradientUnits="userSpaceOnUse">
<stop stop-color="#EFDCFB" stop-opacity="0"/>
<stop offset="0.0287" stop-color="#E9D6F7" stop-opacity="0.029"/>
<stop offset="0.2203" stop-color="#C5B5DE" stop-opacity="0.22"/>
<stop offset="0.4138" stop-color="#AA9BCB" stop-opacity="0.414"/>
<stop offset="0.6078" stop-color="#9688BD" stop-opacity="0.608"/>
<stop offset="0.8028" stop-color="#8A7DB5" stop-opacity="0.803"/>
<stop offset="1" stop-color="#8679B2"/>
</linearGradient>
<linearGradient id="paint32_linear" x1="18.1343" y1="37.9887" x2="16.6945" y2="35.8561" gradientUnits="userSpaceOnUse">
<stop stop-color="#EFDCFB" stop-opacity="0"/>
<stop offset="0.0287" stop-color="#E9D6F7" stop-opacity="0.029"/>
<stop offset="0.2203" stop-color="#C5B5DE" stop-opacity="0.22"/>
<stop offset="0.4138" stop-color="#AA9BCB" stop-opacity="0.414"/>
<stop offset="0.6078" stop-color="#9688BD" stop-opacity="0.608"/>
<stop offset="0.8028" stop-color="#8A7DB5" stop-opacity="0.803"/>
<stop offset="1" stop-color="#8679B2"/>
</linearGradient>
<linearGradient id="paint33_linear" x1="101.358" y1="75.1222" x2="120.958" y2="95.9101" gradientUnits="userSpaceOnUse">
<stop stop-color="#464F00"/>
<stop offset="0.2883" stop-color="#454518"/>
<stop offset="0.7468" stop-color="#443738"/>
<stop offset="1" stop-color="#433244"/>
</linearGradient>
<linearGradient id="paint34_linear" x1="105.115" y1="52.3092" x2="115.469" y2="90.9833" gradientUnits="userSpaceOnUse">
<stop stop-color="#F8F6FB"/>
<stop offset="1" stop-color="#EFDCFB"/>
</linearGradient>
<linearGradient id="paint35_linear" x1="107.589" y1="57.4617" x2="107.132" y2="62.64" gradientUnits="userSpaceOnUse">
<stop stop-color="#FF6359"/>
<stop offset="0.2243" stop-color="#FE5B50"/>
<stop offset="0.5952" stop-color="#FC4637"/>
<stop offset="1" stop-color="#F82814"/>
</linearGradient>
<linearGradient id="paint36_linear" x1="92.7615" y1="61.2953" x2="96.7321" y2="70.4129" gradientUnits="userSpaceOnUse">
<stop stop-color="#FFA936"/>
<stop offset="0.4112" stop-color="#FF8548"/>
<stop offset="0.7781" stop-color="#FF6C54"/>
<stop offset="1" stop-color="#FF6359"/>
</linearGradient>
<linearGradient id="paint37_linear" x1="109.204" y1="64.0812" x2="112.292" y2="73.493" gradientUnits="userSpaceOnUse">
<stop stop-color="#BADA00"/>
<stop offset="0.2269" stop-color="#B0CE00"/>
<stop offset="0.6378" stop-color="#95AE00"/>
<stop offset="1" stop-color="#798C00"/>
</linearGradient>
<linearGradient id="paint38_linear" x1="121.452" y1="62.7035" x2="127.776" y2="71.8212" gradientUnits="userSpaceOnUse">
<stop stop-color="#FFD945"/>
<stop offset="0.3043" stop-color="#FFCD3E"/>
<stop offset="0.8558" stop-color="#FFAD2B"/>
<stop offset="1" stop-color="#FFA325"/>
</linearGradient>
<linearGradient id="paint39_linear" x1="118.397" y1="59.3785" x2="126.082" y2="62.0288" gradientUnits="userSpaceOnUse">
<stop stop-color="#FFDECF"/>
<stop offset="0.3791" stop-color="#FDC4B0"/>
<stop offset="0.7655" stop-color="#FBAE97"/>
<stop offset="1" stop-color="#FAA68E"/>
</linearGradient>
<linearGradient id="paint40_linear" x1="76.7921" y1="62.8286" x2="69.5465" y2="61.8337" gradientUnits="userSpaceOnUse">
<stop stop-color="#EFDCFB" stop-opacity="0"/>
<stop offset="0.0287" stop-color="#E9D6F7" stop-opacity="0.029"/>
<stop offset="0.2203" stop-color="#C5B5DE" stop-opacity="0.22"/>
<stop offset="0.4138" stop-color="#AA9BCB" stop-opacity="0.414"/>
<stop offset="0.6078" stop-color="#9688BD" stop-opacity="0.608"/>
<stop offset="0.8028" stop-color="#8A7DB5" stop-opacity="0.803"/>
<stop offset="1" stop-color="#8679B2"/>
</linearGradient>
<linearGradient id="paint41_linear" x1="77.4793" y1="67.5369" x2="71.7595" y2="66.7515" gradientUnits="userSpaceOnUse">
<stop stop-color="#EFDCFB" stop-opacity="0"/>
<stop offset="0.0287" stop-color="#E9D6F7" stop-opacity="0.029"/>
<stop offset="0.2203" stop-color="#C5B5DE" stop-opacity="0.22"/>
<stop offset="0.4138" stop-color="#AA9BCB" stop-opacity="0.414"/>
<stop offset="0.6078" stop-color="#9688BD" stop-opacity="0.608"/>
<stop offset="0.8028" stop-color="#8A7DB5" stop-opacity="0.803"/>
<stop offset="1" stop-color="#8679B2"/>
</linearGradient>
<linearGradient id="paint42_linear" x1="80.9783" y1="64.0559" x2="77.5297" y2="63.5824" gradientUnits="userSpaceOnUse">
<stop stop-color="#EFDCFB" stop-opacity="0"/>
<stop offset="0.0287" stop-color="#E9D6F7" stop-opacity="0.029"/>
<stop offset="0.2203" stop-color="#C5B5DE" stop-opacity="0.22"/>
<stop offset="0.4138" stop-color="#AA9BCB" stop-opacity="0.414"/>
<stop offset="0.6078" stop-color="#9688BD" stop-opacity="0.608"/>
<stop offset="0.8028" stop-color="#8A7DB5" stop-opacity="0.803"/>
<stop offset="1" stop-color="#8679B2"/>
</linearGradient>
<linearGradient id="paint43_linear" x1="139.251" y1="69.8557" x2="135.304" y2="63.6957" gradientUnits="userSpaceOnUse">
<stop stop-color="#EFDCFB" stop-opacity="0"/>
<stop offset="0.0287" stop-color="#E9D6F7" stop-opacity="0.029"/>
<stop offset="0.2203" stop-color="#C5B5DE" stop-opacity="0.22"/>
<stop offset="0.4138" stop-color="#AA9BCB" stop-opacity="0.414"/>
<stop offset="0.6078" stop-color="#9688BD" stop-opacity="0.608"/>
<stop offset="0.8028" stop-color="#8A7DB5" stop-opacity="0.803"/>
<stop offset="1" stop-color="#8679B2"/>
</linearGradient>
<linearGradient id="paint44_linear" x1="136.114" y1="73.4359" x2="132.998" y2="68.5728" gradientUnits="userSpaceOnUse">
<stop stop-color="#EFDCFB" stop-opacity="0"/>
<stop offset="0.0287" stop-color="#E9D6F7" stop-opacity="0.029"/>
<stop offset="0.2203" stop-color="#C5B5DE" stop-opacity="0.22"/>
<stop offset="0.4138" stop-color="#AA9BCB" stop-opacity="0.414"/>
<stop offset="0.6078" stop-color="#9688BD" stop-opacity="0.608"/>
<stop offset="0.8028" stop-color="#8A7DB5" stop-opacity="0.803"/>
<stop offset="1" stop-color="#8679B2"/>
</linearGradient>
<linearGradient id="paint45_linear" x1="141.035" y1="73.8378" x2="139.156" y2="70.906" gradientUnits="userSpaceOnUse">
<stop stop-color="#EFDCFB" stop-opacity="0"/>
<stop offset="0.0287" stop-color="#E9D6F7" stop-opacity="0.029"/>
<stop offset="0.2203" stop-color="#C5B5DE" stop-opacity="0.22"/>
<stop offset="0.4138" stop-color="#AA9BCB" stop-opacity="0.414"/>
<stop offset="0.6078" stop-color="#9688BD" stop-opacity="0.608"/>
<stop offset="0.8028" stop-color="#8A7DB5" stop-opacity="0.803"/>
<stop offset="1" stop-color="#8679B2"/>
</linearGradient>
<linearGradient id="paint46_linear" x1="81.6679" y1="58.752" x2="78.6428" y2="54.2716" gradientUnits="userSpaceOnUse">
<stop stop-color="#EFDCFB" stop-opacity="0"/>
<stop offset="0.0287" stop-color="#E9D6F7" stop-opacity="0.029"/>
<stop offset="0.2203" stop-color="#C5B5DE" stop-opacity="0.22"/>
<stop offset="0.4138" stop-color="#AA9BCB" stop-opacity="0.414"/>
<stop offset="0.6078" stop-color="#9688BD" stop-opacity="0.608"/>
<stop offset="0.8028" stop-color="#8A7DB5" stop-opacity="0.803"/>
<stop offset="1" stop-color="#8679B2"/>
</linearGradient>
<linearGradient id="paint47_linear" x1="79.4146" y1="61.4524" x2="77.0263" y2="57.9154" gradientUnits="userSpaceOnUse">
<stop stop-color="#EFDCFB" stop-opacity="0"/>
<stop offset="0.0287" stop-color="#E9D6F7" stop-opacity="0.029"/>
<stop offset="0.2203" stop-color="#C5B5DE" stop-opacity="0.22"/>
<stop offset="0.4138" stop-color="#AA9BCB" stop-opacity="0.414"/>
<stop offset="0.6078" stop-color="#9688BD" stop-opacity="0.608"/>
<stop offset="0.8028" stop-color="#8A7DB5" stop-opacity="0.803"/>
<stop offset="1" stop-color="#8679B2"/>
</linearGradient>
<linearGradient id="paint48_linear" x1="83.0569" y1="61.6622" x2="81.6168" y2="59.5297" gradientUnits="userSpaceOnUse">
<stop stop-color="#EFDCFB" stop-opacity="0"/>
<stop offset="0.0287" stop-color="#E9D6F7" stop-opacity="0.029"/>
<stop offset="0.2203" stop-color="#C5B5DE" stop-opacity="0.22"/>
<stop offset="0.4138" stop-color="#AA9BCB" stop-opacity="0.414"/>
<stop offset="0.6078" stop-color="#9688BD" stop-opacity="0.608"/>
<stop offset="0.8028" stop-color="#8A7DB5" stop-opacity="0.803"/>
<stop offset="1" stop-color="#8679B2"/>
</linearGradient>
<linearGradient id="paint49_linear" x1="114.427" y1="132.602" x2="83.88" y2="102.055" gradientUnits="userSpaceOnUse">
<stop offset="0.001" stop-color="#433244" stop-opacity="0"/>
<stop offset="0.4841" stop-color="#362637" stop-opacity="0.484"/>
<stop offset="1" stop-color="#2D1E2E"/>
</linearGradient>
<linearGradient id="paint50_linear" x1="45.2965" y1="109.675" x2="64.8965" y2="130.463" gradientUnits="userSpaceOnUse">
<stop stop-color="#464F00"/>
<stop offset="0.2883" stop-color="#454518"/>
<stop offset="0.7468" stop-color="#443738"/>
<stop offset="1" stop-color="#433244"/>
</linearGradient>
<linearGradient id="paint51_linear" x1="49.0533" y1="86.8623" x2="59.4068" y2="125.536" gradientUnits="userSpaceOnUse">
<stop stop-color="#F8F6FB"/>
<stop offset="1" stop-color="#EFDCFB"/>
</linearGradient>
<linearGradient id="paint52_linear" x1="53.4083" y1="92.0108" x2="53.8633" y2="97.1664" gradientUnits="userSpaceOnUse">
<stop stop-color="#FF6359"/>
<stop offset="0.2243" stop-color="#FE5B50"/>
<stop offset="0.5952" stop-color="#FC4637"/>
<stop offset="1" stop-color="#F82814"/>
</linearGradient>
<linearGradient id="paint53_linear" x1="65.5391" y1="96.7597" x2="67.2138" y2="104.22" gradientUnits="userSpaceOnUse">
<stop stop-color="#FFA936"/>
<stop offset="0.4112" stop-color="#FF8548"/>
<stop offset="0.7781" stop-color="#FF6C54"/>
<stop offset="1" stop-color="#FF6359"/>
</linearGradient>
<linearGradient id="paint54_linear" x1="48.063" y1="99.7938" x2="53.2398" y2="109.691" gradientUnits="userSpaceOnUse">
<stop stop-color="#BADA00"/>
<stop offset="0.2269" stop-color="#B0CE00"/>
<stop offset="0.6378" stop-color="#95AE00"/>
<stop offset="1" stop-color="#798C00"/>
</linearGradient>
<linearGradient id="paint55_linear" x1="38.7451" y1="97.8135" x2="43.8033" y2="105.857" gradientUnits="userSpaceOnUse">
<stop stop-color="#FFD945"/>
<stop offset="0.3043" stop-color="#FFCD3E"/>
<stop offset="0.8558" stop-color="#FFAD2B"/>
<stop offset="1" stop-color="#FFA325"/>
</linearGradient>
<linearGradient id="paint56_linear" x1="62.3351" y1="93.9315" x2="70.0207" y2="96.5818" gradientUnits="userSpaceOnUse">
<stop stop-color="#FFDECF"/>
<stop offset="0.3791" stop-color="#FDC4B0"/>
<stop offset="0.7655" stop-color="#FBAE97"/>
<stop offset="1" stop-color="#FAA68E"/>
</linearGradient>
<linearGradient id="paint57_linear" x1="20.7142" y1="97.3728" x2="13.4686" y2="96.378" gradientUnits="userSpaceOnUse">
<stop stop-color="#EFDCFB" stop-opacity="0"/>
<stop offset="0.0287" stop-color="#E9D6F7" stop-opacity="0.029"/>
<stop offset="0.2203" stop-color="#C5B5DE" stop-opacity="0.22"/>
<stop offset="0.4138" stop-color="#AA9BCB" stop-opacity="0.414"/>
<stop offset="0.6078" stop-color="#9688BD" stop-opacity="0.608"/>
<stop offset="0.8028" stop-color="#8A7DB5" stop-opacity="0.803"/>
<stop offset="1" stop-color="#8679B2"/>
</linearGradient>
<linearGradient id="paint58_linear" x1="21.4014" y1="102.081" x2="15.6816" y2="101.296" gradientUnits="userSpaceOnUse">
<stop stop-color="#EFDCFB" stop-opacity="0"/>
<stop offset="0.0287" stop-color="#E9D6F7" stop-opacity="0.029"/>
<stop offset="0.2203" stop-color="#C5B5DE" stop-opacity="0.22"/>
<stop offset="0.4138" stop-color="#AA9BCB" stop-opacity="0.414"/>
<stop offset="0.6078" stop-color="#9688BD" stop-opacity="0.608"/>
<stop offset="0.8028" stop-color="#8A7DB5" stop-opacity="0.803"/>
<stop offset="1" stop-color="#8679B2"/>
</linearGradient>
<linearGradient id="paint59_linear" x1="24.9003" y1="98.6001" x2="21.4518" y2="98.1263" gradientUnits="userSpaceOnUse">
<stop stop-color="#EFDCFB" stop-opacity="0"/>
<stop offset="0.0287" stop-color="#E9D6F7" stop-opacity="0.029"/>
<stop offset="0.2203" stop-color="#C5B5DE" stop-opacity="0.22"/>
<stop offset="0.4138" stop-color="#AA9BCB" stop-opacity="0.414"/>
<stop offset="0.6078" stop-color="#9688BD" stop-opacity="0.608"/>
<stop offset="0.8028" stop-color="#8A7DB5" stop-opacity="0.803"/>
<stop offset="1" stop-color="#8679B2"/>
</linearGradient>
<linearGradient id="paint60_linear" x1="83.1643" y1="104.433" x2="79.2169" y2="98.2727" gradientUnits="userSpaceOnUse">
<stop stop-color="#EFDCFB" stop-opacity="0"/>
<stop offset="0.0287" stop-color="#E9D6F7" stop-opacity="0.029"/>
<stop offset="0.2203" stop-color="#C5B5DE" stop-opacity="0.22"/>
<stop offset="0.4138" stop-color="#AA9BCB" stop-opacity="0.414"/>
<stop offset="0.6078" stop-color="#9688BD" stop-opacity="0.608"/>
<stop offset="0.8028" stop-color="#8A7DB5" stop-opacity="0.803"/>
<stop offset="1" stop-color="#8679B2"/>
</linearGradient>
<linearGradient id="paint61_linear" x1="80.0275" y1="108.013" x2="76.911" y2="103.15" gradientUnits="userSpaceOnUse">
<stop stop-color="#EFDCFB" stop-opacity="0"/>
<stop offset="0.0287" stop-color="#E9D6F7" stop-opacity="0.029"/>
<stop offset="0.2203" stop-color="#C5B5DE" stop-opacity="0.22"/>
<stop offset="0.4138" stop-color="#AA9BCB" stop-opacity="0.414"/>
<stop offset="0.6078" stop-color="#9688BD" stop-opacity="0.608"/>
<stop offset="0.8028" stop-color="#8A7DB5" stop-opacity="0.803"/>
<stop offset="1" stop-color="#8679B2"/>
</linearGradient>
<linearGradient id="paint62_linear" x1="84.9485" y1="108.415" x2="83.0696" y2="105.483" gradientUnits="userSpaceOnUse">
<stop stop-color="#EFDCFB" stop-opacity="0"/>
<stop offset="0.0287" stop-color="#E9D6F7" stop-opacity="0.029"/>
<stop offset="0.2203" stop-color="#C5B5DE" stop-opacity="0.22"/>
<stop offset="0.4138" stop-color="#AA9BCB" stop-opacity="0.414"/>
<stop offset="0.6078" stop-color="#9688BD" stop-opacity="0.608"/>
<stop offset="0.8028" stop-color="#8A7DB5" stop-opacity="0.803"/>
<stop offset="1" stop-color="#8679B2"/>
</linearGradient>
<linearGradient id="paint63_linear" x1="25.5899" y1="93.3388" x2="22.5646" y2="88.8584" gradientUnits="userSpaceOnUse">
<stop stop-color="#EFDCFB" stop-opacity="0"/>
<stop offset="0.0287" stop-color="#E9D6F7" stop-opacity="0.029"/>
<stop offset="0.2203" stop-color="#C5B5DE" stop-opacity="0.22"/>
<stop offset="0.4138" stop-color="#AA9BCB" stop-opacity="0.414"/>
<stop offset="0.6078" stop-color="#9688BD" stop-opacity="0.608"/>
<stop offset="0.8028" stop-color="#8A7DB5" stop-opacity="0.803"/>
<stop offset="1" stop-color="#8679B2"/>
</linearGradient>
<linearGradient id="paint64_linear" x1="23.3364" y1="96.0389" x2="20.948" y2="92.5022" gradientUnits="userSpaceOnUse">
<stop stop-color="#EFDCFB" stop-opacity="0"/>
<stop offset="0.0287" stop-color="#E9D6F7" stop-opacity="0.029"/>
<stop offset="0.2203" stop-color="#C5B5DE" stop-opacity="0.22"/>
<stop offset="0.4138" stop-color="#AA9BCB" stop-opacity="0.414"/>
<stop offset="0.6078" stop-color="#9688BD" stop-opacity="0.608"/>
<stop offset="0.8028" stop-color="#8A7DB5" stop-opacity="0.803"/>
<stop offset="1" stop-color="#8679B2"/>
</linearGradient>
<linearGradient id="paint65_linear" x1="26.9786" y1="96.249" x2="25.5389" y2="94.1165" gradientUnits="userSpaceOnUse">
<stop stop-color="#EFDCFB" stop-opacity="0"/>
<stop offset="0.0287" stop-color="#E9D6F7" stop-opacity="0.029"/>
<stop offset="0.2203" stop-color="#C5B5DE" stop-opacity="0.22"/>
<stop offset="0.4138" stop-color="#AA9BCB" stop-opacity="0.414"/>
<stop offset="0.6078" stop-color="#9688BD" stop-opacity="0.608"/>
<stop offset="0.8028" stop-color="#8A7DB5" stop-opacity="0.803"/>
<stop offset="1" stop-color="#8679B2"/>
</linearGradient>
<clipPath id="clip0">
<rect width="150" height="150" fill="white" transform="translate(0.621582)"/>
</clipPath>
</defs>
</svg>
