<svg width="151" height="150" viewBox="0 0 151 150" fill="none" xmlns="http://www.w3.org/2000/svg">
<g clip-path="url(#clip0)">
<path d="M75.4238 12.5206C34.0041 12.5206 0.423828 40.6953 0.423828 75.4539C0.423828 110.212 34.0041 138.387 75.4238 138.387C116.844 138.387 150.424 110.212 150.424 75.4539C150.424 40.6953 116.844 12.5206 75.4238 12.5206ZM75.6435 39.613C75.5571 39.6127 75.4715 39.6098 75.3847 39.6101C75.3977 39.6101 75.4106 39.6095 75.4235 39.6095C75.4977 39.6095 75.57 39.6127 75.6435 39.613ZM75.4238 71.2989C65.3415 71.2989 56.6909 67.3209 52.9812 61.6483C56.6791 55.9809 65.2894 51.9809 75.3453 51.9312C85.4753 51.8809 94.1785 55.8539 97.8874 61.5512C94.1944 67.2483 85.5338 71.2989 75.4238 71.2989Z" fill="url(#paint0_linear)"/>
<path d="M75.4238 12.5206C34.0041 12.5206 0.423828 40.6953 0.423828 75.4539C0.423828 110.212 34.0041 138.387 75.4238 138.387C116.844 138.387 150.424 110.212 150.424 75.4539C150.424 40.6953 116.844 12.5206 75.4238 12.5206ZM75.6435 39.613C75.5571 39.6127 75.4715 39.6098 75.3847 39.6101C75.3977 39.6101 75.4106 39.6095 75.4235 39.6095C75.4977 39.6095 75.57 39.6127 75.6435 39.613ZM75.4238 71.2989C65.3415 71.2989 56.6909 67.3209 52.9812 61.6483C56.6791 55.9809 65.2894 51.9809 75.3453 51.9312C85.4753 51.8809 94.1785 55.8539 97.8874 61.5512C94.1944 67.2483 85.5338 71.2989 75.4238 71.2989Z" fill="url(#paint1_linear)"/>
<path d="M150.424 75.4542H109.558C82.4829 75.4542 60.5347 97.4027 60.5347 124.477C60.5347 126.58 61.4708 128.461 62.9444 129.738L71.5091 138.302C72.8056 138.358 74.1108 138.387 75.4238 138.387C116.843 138.387 150.424 110.212 150.424 75.4542Z" fill="url(#paint2_linear)"/>
<path d="M150.424 75.4542H127.192C103.032 75.4542 83.446 95.04 83.446 119.2C83.446 121.352 84.4005 123.319 85.9155 124.642L97.0102 135.737C127.908 127.957 150.424 103.915 150.424 75.4542Z" fill="url(#paint3_linear)"/>
<path d="M150.424 75.4542C150.424 58.4763 142.409 43.0716 129.385 31.7516V96.3886C129.487 98.271 130.339 99.9519 131.644 101.145L139.148 108.649C146.293 99.0122 150.424 87.6389 150.424 75.4542Z" fill="url(#paint4_linear)"/>
<path d="M150.424 60.3686C150.424 33.2086 116.844 11.193 75.4238 11.193C34.0041 11.193 0.423828 33.2083 0.423828 60.3686C0.423828 65.6727 1.70677 70.7798 4.07765 75.5653C6.42736 80.3077 7.56118 85.5601 7.56118 90.8527V101.139C7.56118 104.981 10.5956 108.234 14.4371 108.281C16.3924 108.305 18.1641 107.52 19.4424 106.242C20.7018 104.983 21.4815 103.241 21.4815 101.319C21.4815 98.4198 24.5909 96.5877 27.1288 97.9901C34.4353 102.027 42.9335 105.165 52.2288 107.146C57.0588 108.175 60.5347 112.404 60.5347 117.342V124.477C60.5347 128.323 63.6509 131.439 67.4932 131.439C69.4144 131.439 71.1565 130.659 72.4159 129.4C73.6753 128.141 74.455 126.399 74.455 124.477V117.185C74.455 114.703 76.4674 112.688 78.9521 112.688C80.1912 112.688 81.3153 113.191 82.1291 114.004C82.9429 114.822 83.4459 115.942 83.4459 117.185V119.199C83.4459 123.04 86.4806 126.294 90.3218 126.341C92.2768 126.364 94.0488 125.58 95.3271 124.302C96.5865 123.042 97.3662 121.304 97.3662 119.379V115.919C97.3662 111.094 100.553 106.833 105.195 105.515C113.8 103.072 121.569 99.6024 128.144 95.3415C128.671 94.9995 129.366 95.3798 129.366 96.0086C129.366 99.8506 132.483 102.967 136.328 102.967C138.249 102.967 139.988 102.187 141.247 100.928C142.507 99.6686 143.287 97.9298 143.287 96.0089V89.1277C143.287 84.6915 144.299 80.2971 146.361 76.3689C148.993 71.353 150.424 65.9706 150.424 60.3686ZM75.3453 39.6098C88.8097 39.543 99.7568 46.5824 99.8 55.3336C99.8435 64.0848 88.9668 71.2321 75.5024 71.2989C62.0379 71.3656 51.0909 64.3262 51.0477 55.5751C51.0041 46.8239 61.8809 39.6762 75.3453 39.6098Z" fill="url(#paint5_radial)"/>
<g opacity="0.6">
<g opacity="0.6">
<path opacity="0.6" d="M32.8124 111.13C34.3842 111.13 35.6583 109.856 35.6583 108.284C35.6583 106.712 34.3842 105.438 32.8124 105.438C31.2407 105.438 29.9666 106.712 29.9666 108.284C29.9666 109.856 31.2407 111.13 32.8124 111.13Z" fill="url(#paint6_linear)"/>
<path opacity="0.6" d="M25.0168 115.147C26.2576 115.147 27.2636 114.141 27.2636 112.901C27.2636 111.66 26.2576 110.654 25.0168 110.654C23.7759 110.654 22.77 111.66 22.77 112.901C22.77 114.141 23.7759 115.147 25.0168 115.147Z" fill="url(#paint7_linear)"/>
<path opacity="0.6" d="M33.2277 119.916C33.9757 119.916 34.5821 119.31 34.5821 118.562C34.5821 117.814 33.9757 117.207 33.2277 117.207C32.4797 117.207 31.8733 117.814 31.8733 118.562C31.8733 119.31 32.4797 119.916 33.2277 119.916Z" fill="url(#paint8_linear)"/>
</g>
<g opacity="0.6">
<path opacity="0.6" d="M45.7309 118.397C46.8923 118.397 47.8338 117.456 47.8338 116.294C47.8338 115.133 46.8923 114.191 45.7309 114.191C44.5694 114.191 43.6279 115.133 43.6279 116.294C43.6279 117.456 44.5694 118.397 45.7309 118.397Z" fill="url(#paint9_linear)"/>
<path opacity="0.6" d="M39.348 115.935C40.265 115.935 41.0083 115.192 41.0083 114.275C41.0083 113.358 40.265 112.615 39.348 112.615C38.4311 112.615 37.6877 113.358 37.6877 114.275C37.6877 115.192 38.4311 115.935 39.348 115.935Z" fill="url(#paint10_linear)"/>
<path opacity="0.6" d="M40.2755 122.587C40.8283 122.587 41.2764 122.139 41.2764 121.586C41.2764 121.033 40.8283 120.585 40.2755 120.585C39.7228 120.585 39.2747 121.033 39.2747 121.586C39.2747 122.139 39.7228 122.587 40.2755 122.587Z" fill="url(#paint11_linear)"/>
</g>
<g opacity="0.6">
<path opacity="0.6" d="M132.313 109.08C133.475 109.08 134.416 108.139 134.416 106.977C134.416 105.816 133.475 104.874 132.313 104.874C131.152 104.874 130.21 105.816 130.21 106.977C130.21 108.139 131.152 109.08 132.313 109.08Z" fill="url(#paint12_linear)"/>
<path opacity="0.6" d="M125.931 106.619C126.848 106.619 127.591 105.876 127.591 104.959C127.591 104.042 126.848 103.298 125.931 103.298C125.014 103.298 124.27 104.042 124.27 104.959C124.27 105.876 125.014 106.619 125.931 106.619Z" fill="url(#paint13_linear)"/>
<path opacity="0.6" d="M126.858 113.27C127.411 113.27 127.859 112.822 127.859 112.269C127.859 111.717 127.411 111.269 126.858 111.269C126.305 111.269 125.857 111.717 125.857 112.269C125.857 112.822 126.305 113.27 126.858 113.27Z" fill="url(#paint14_linear)"/>
</g>
</g>
<path d="M81.0534 18.5083C79.6413 15.7398 75.4078 15.5139 73.9393 15.436C70.5125 15.2542 65.7707 15.6725 59.8437 16.6778C34.6901 20.9433 14.664 41.8769 13.8237 42.766C12.8631 43.7825 12.9084 45.3851 13.9248 46.3457L22.1725 54.2916C18.6398 58.1381 15.2801 62.7863 14.401 67.2351C13.5951 71.3119 15.1569 73.8342 16.609 75.2322L47.3584 105.981C48.9557 106.404 50.5793 106.794 52.229 107.146C57.059 108.175 60.5348 112.404 60.5348 117.342V119.158L71.5237 130.147C71.8407 129.921 72.1416 129.675 72.416 129.4C73.6754 128.141 74.4551 126.399 74.4551 124.477V117.185C74.4551 114.703 76.4675 112.688 78.9522 112.688C80.1913 112.688 81.3154 113.191 82.1293 114.005C82.9431 114.822 83.446 115.942 83.446 117.185V119.199C83.446 123.04 86.4807 126.294 90.3219 126.341C92.2772 126.364 94.049 125.58 95.3272 124.302C96.5866 123.042 97.3663 121.304 97.3663 119.379V115.919C97.3663 111.094 100.553 106.833 105.195 105.515C113.8 103.072 121.569 99.6025 128.144 95.3416C128.671 94.9995 129.367 95.3798 129.367 96.0087C129.367 99.8507 132.483 102.967 136.328 102.967C138.25 102.967 139.988 102.187 141.247 100.928C142.507 99.6686 143.287 97.9298 143.287 96.0089V89.1278C143.287 86.6195 143.611 84.1245 144.265 81.7198L81.0534 18.5083ZM75.5025 71.2986C62.0381 71.3654 51.091 64.326 51.0478 55.5748C51.0046 46.8236 61.881 39.6763 75.3454 39.6095C88.8099 39.5428 99.7569 46.5822 99.8001 55.3334C99.8437 64.0845 88.9669 71.2322 75.5025 71.2986Z" fill="url(#paint15_linear)"/>
<path d="M22.6865 77.4603C20.188 77.4606 18.1474 76.7132 16.6091 75.232C15.1571 73.8341 13.5953 71.312 14.4012 67.235C15.8303 60.0047 23.8094 52.2444 28.4386 48.2623C36.14 41.637 45.6289 35.8341 54.4727 32.3414C69.0565 26.5814 74.5456 22.5403 76.0262 20.8129C74.5971 20.4403 70.6212 19.987 60.6906 21.6709C37.19 25.6559 17.6989 46.0388 17.505 46.2444C16.5444 47.2609 14.9421 47.3062 13.9253 46.3456C12.9089 45.385 12.8636 43.7823 13.8242 42.7659C14.6644 41.8767 34.6903 20.9432 59.8442 16.6776C65.7712 15.6726 70.513 15.2541 73.9397 15.4359C75.5321 15.52 80.3774 15.7762 81.3497 19.2612C82.3468 22.8353 78.1715 26.0091 74.9444 28.0853C70.6889 30.8232 64.2533 33.9235 56.3333 37.0517C47.9947 40.345 39.0315 45.8306 31.7418 52.1017C24.8109 58.0638 20.1859 64.0885 19.37 68.217C18.9768 70.207 19.6109 71.0917 20.1224 71.5838C21.6053 73.0109 25.1336 72.5653 30.3262 70.295C36.59 67.5564 44.5318 62.4379 50.7506 58.2847C51.9133 57.5076 53.4859 57.8212 54.2627 58.9841C55.0394 60.147 54.7262 61.7197 53.5633 62.4962C47.1706 66.7656 38.9827 72.0376 32.3544 74.9353C28.9956 76.4038 26.2003 77.2141 23.8092 77.4123C23.4253 77.4444 23.0509 77.4603 22.6865 77.4603Z" fill="url(#paint16_linear)"/>
<path d="M150.424 60.3689C150.424 65.9701 148.993 71.3518 146.359 76.3689C144.3 80.2953 143.287 84.6912 143.287 89.1277V96.0086C143.287 96.7209 143.179 97.413 142.976 98.0612L99.7869 54.8724C99.4258 47.465 91.2484 41.3774 80.4546 39.9359C80.4749 39.1053 80.8969 38.2986 81.6567 37.8324C91.0696 32.0253 99.9896 27.1027 106.026 25.2727C113.903 22.8824 119.91 23.5845 123.877 27.3659L149.617 53.1503C150.147 55.5071 150.424 57.9145 150.424 60.3689Z" fill="url(#paint17_linear)"/>
<path d="M100.931 55.1456C100.012 55.1456 99.1259 54.6442 98.6768 53.7709C98.0371 52.5274 98.5271 51.0006 99.7709 50.3609C105.575 47.3762 120.993 39.4477 121.775 34.023C121.866 33.3959 121.82 32.4036 120.381 31.0321C115.479 26.3592 102.522 30.9121 84.3145 42.1418C83.1242 42.8756 81.5645 42.5059 80.8301 41.3156C80.0962 40.1253 80.4657 38.565 81.6562 37.8309C91.0692 32.0256 99.9877 27.1027 106.024 25.2712C113.904 22.8809 119.91 23.5856 123.875 27.3668C126.765 30.1215 127.054 32.9003 126.788 34.7462C125.829 41.3947 116.219 47.5971 102.087 54.865C101.716 55.0553 101.321 55.1456 100.931 55.1456Z" fill="url(#paint18_linear)"/>
<path d="M150.183 64.3136L140.985 55.1159C140.554 54.61 140.023 54.1227 139.392 53.6547C129.922 46.635 111.18 59.2768 91.3398 72.6609C86.4872 75.9344 81.801 79.0947 77.4045 81.855C77.3822 81.8412 77.3601 81.8271 77.3375 81.8141C77.3172 81.7791 66.2057 70.65 66.1837 70.6159C66.0216 70.3647 65.821 70.1544 65.5969 69.9824C65.0292 69.8212 64.4704 69.6494 63.9266 69.4615C63.4981 69.483 63.0693 69.6115 62.6831 69.8609C55.6004 74.4306 46.4801 81.4565 49.0342 89.6736C49.6716 91.7239 50.6904 93.0853 51.769 93.9915L74.4813 116.704C74.7213 114.448 76.6298 112.687 78.9519 112.687C80.191 112.687 81.3151 113.19 82.129 114.004C82.9428 114.821 83.4457 115.942 83.4457 117.184V119.199C83.4457 123.04 86.4804 126.294 90.3216 126.34C92.2769 126.364 94.0487 125.58 95.3269 124.301C96.5863 123.042 97.366 121.303 97.366 119.379V115.919C97.366 111.094 100.553 106.832 105.195 105.515C113.8 103.072 121.569 99.6021 128.143 95.3412C128.671 94.9991 129.366 95.3794 129.366 96.0083C129.366 99.8503 132.482 102.967 136.328 102.967C138.249 102.967 139.988 102.187 141.247 100.928C142.507 99.6683 143.287 97.9294 143.287 96.0086V89.1274C143.287 84.6912 144.299 80.2968 146.36 76.3686C148.368 72.5421 149.675 68.5015 150.183 64.3136Z" fill="url(#paint19_linear)"/>
<path d="M57.4076 95.8753C56.2447 95.8756 55.1676 95.7118 54.1814 95.3653C52.4511 94.7574 50.1541 93.2762 49.0341 89.6736C46.4797 81.4562 55.6003 74.4306 62.6829 69.8609C63.8576 69.1027 65.4253 69.4406 66.1835 70.6159C66.9417 71.7912 66.6038 73.3583 65.4285 74.1165C56.6256 79.7962 52.7367 84.5244 53.8703 88.1703C54.4014 89.8795 55.2129 90.3597 55.8608 90.5874C57.5288 91.1733 61.2453 90.9439 69.4761 86.52C75.9632 83.0339 83.432 77.9953 91.34 72.6609C111.181 59.2768 129.922 46.635 139.392 53.6547C141.44 55.1724 142.44 56.8974 142.364 58.7818C142.212 62.5797 138.049 65.1765 131.154 69.4783C123.38 74.3274 112.734 80.9689 104.128 91.8886C103.261 92.9871 101.67 93.1756 100.571 92.3097C99.4732 91.4441 99.2847 89.8518 100.15 88.7536C109.304 77.1397 120.383 70.228 128.473 65.1815C132.039 62.9568 136.904 59.9224 137.291 58.6147C137.232 58.5074 137.023 58.203 136.376 57.7236C129.783 52.8368 110.038 66.1568 94.172 76.8594C79.1773 86.9744 65.9823 95.8744 57.4076 95.8753Z" fill="url(#paint20_linear)"/>
</g>
<defs>
<linearGradient id="paint0_linear" x1="44.4524" y1="64.178" x2="114.003" y2="89.4998" gradientUnits="userSpaceOnUse">
<stop stop-color="#FAA68E"/>
<stop offset="0.2061" stop-color="#FBA682"/>
<stop offset="0.5808" stop-color="#FDA861"/>
<stop offset="1" stop-color="#FFA936"/>
</linearGradient>
<linearGradient id="paint1_linear" x1="44.4524" y1="64.178" x2="114.003" y2="89.4998" gradientUnits="userSpaceOnUse">
<stop stop-color="#FAA68E"/>
<stop offset="0.2061" stop-color="#FBA682"/>
<stop offset="0.5808" stop-color="#FDA861"/>
<stop offset="1" stop-color="#FFA936"/>
</linearGradient>
<linearGradient id="paint2_linear" x1="115.054" y1="105.445" x2="-15.0439" y2="114.223" gradientUnits="userSpaceOnUse">
<stop stop-color="#F82814" stop-opacity="0"/>
<stop offset="0.2454" stop-color="#F12817" stop-opacity="0.245"/>
<stop offset="0.6052" stop-color="#DD2820" stop-opacity="0.605"/>
<stop offset="1" stop-color="#C0272D"/>
</linearGradient>
<linearGradient id="paint3_linear" x1="119.067" y1="105.055" x2="41.6381" y2="110.457" gradientUnits="userSpaceOnUse">
<stop stop-color="#F82814" stop-opacity="0"/>
<stop offset="0.2454" stop-color="#F12817" stop-opacity="0.245"/>
<stop offset="0.6052" stop-color="#DD2820" stop-opacity="0.605"/>
<stop offset="1" stop-color="#C0272D"/>
</linearGradient>
<linearGradient id="paint4_linear" x1="164.088" y1="89.7701" x2="137.078" y2="72.0448" gradientUnits="userSpaceOnUse">
<stop stop-color="#F82814" stop-opacity="0"/>
<stop offset="0.2454" stop-color="#F12817" stop-opacity="0.245"/>
<stop offset="0.6052" stop-color="#DD2820" stop-opacity="0.605"/>
<stop offset="1" stop-color="#C0272D"/>
</linearGradient>
<radialGradient id="paint5_radial" cx="0" cy="0" r="1" gradientUnits="userSpaceOnUse" gradientTransform="translate(62.9318 41.7112) scale(100.275 69.19)">
<stop stop-color="#A57C52"/>
<stop offset="0.2601" stop-color="#A47950"/>
<stop offset="0.4581" stop-color="#A26F4C"/>
<stop offset="0.6356" stop-color="#9F5F44"/>
<stop offset="0.8011" stop-color="#9A4838"/>
<stop offset="0.9568" stop-color="#942B2A"/>
<stop offset="1" stop-color="#922125"/>
</radialGradient>
<linearGradient id="paint6_linear" x1="32.9124" y1="112.306" x2="30.8211" y2="98.9984" gradientUnits="userSpaceOnUse">
<stop stop-color="#F82814" stop-opacity="0"/>
<stop offset="0.2454" stop-color="#F12817" stop-opacity="0.245"/>
<stop offset="0.6052" stop-color="#DD2820" stop-opacity="0.605"/>
<stop offset="1" stop-color="#C0272D"/>
</linearGradient>
<linearGradient id="paint7_linear" x1="24.9731" y1="116.017" x2="23.3226" y2="105.512" gradientUnits="userSpaceOnUse">
<stop stop-color="#F82814" stop-opacity="0"/>
<stop offset="0.2454" stop-color="#F12817" stop-opacity="0.245"/>
<stop offset="0.6052" stop-color="#DD2820" stop-opacity="0.605"/>
<stop offset="1" stop-color="#C0272D"/>
</linearGradient>
<linearGradient id="paint8_linear" x1="32.9704" y1="120.34" x2="31.9753" y2="114.007" gradientUnits="userSpaceOnUse">
<stop stop-color="#F82814" stop-opacity="0"/>
<stop offset="0.2454" stop-color="#F12817" stop-opacity="0.245"/>
<stop offset="0.6052" stop-color="#DD2820" stop-opacity="0.605"/>
<stop offset="1" stop-color="#C0272D"/>
</linearGradient>
<linearGradient id="paint9_linear" x1="43.5903" y1="118.433" x2="49.8864" y2="110.725" gradientUnits="userSpaceOnUse">
<stop stop-color="#F82814" stop-opacity="0"/>
<stop offset="0.2454" stop-color="#F12817" stop-opacity="0.245"/>
<stop offset="0.6052" stop-color="#DD2820" stop-opacity="0.605"/>
<stop offset="1" stop-color="#C0272D"/>
</linearGradient>
<linearGradient id="paint10_linear" x1="37.6351" y1="115.89" x2="42.6054" y2="109.806" gradientUnits="userSpaceOnUse">
<stop stop-color="#F82814" stop-opacity="0"/>
<stop offset="0.2454" stop-color="#F12817" stop-opacity="0.245"/>
<stop offset="0.6052" stop-color="#DD2820" stop-opacity="0.605"/>
<stop offset="1" stop-color="#C0272D"/>
</linearGradient>
<linearGradient id="paint11_linear" x1="39.1954" y1="122.424" x2="42.192" y2="118.755" gradientUnits="userSpaceOnUse">
<stop stop-color="#F82814" stop-opacity="0"/>
<stop offset="0.2454" stop-color="#F12817" stop-opacity="0.245"/>
<stop offset="0.6052" stop-color="#DD2820" stop-opacity="0.605"/>
<stop offset="1" stop-color="#C0272D"/>
</linearGradient>
<linearGradient id="paint12_linear" x1="130.163" y1="109.141" x2="136.459" y2="101.433" gradientUnits="userSpaceOnUse">
<stop stop-color="#F82814" stop-opacity="0"/>
<stop offset="0.2454" stop-color="#F12817" stop-opacity="0.245"/>
<stop offset="0.6052" stop-color="#DD2820" stop-opacity="0.605"/>
<stop offset="1" stop-color="#C0272D"/>
</linearGradient>
<linearGradient id="paint13_linear" x1="124.208" y1="106.599" x2="129.178" y2="100.513" gradientUnits="userSpaceOnUse">
<stop stop-color="#F82814" stop-opacity="0"/>
<stop offset="0.2454" stop-color="#F12817" stop-opacity="0.245"/>
<stop offset="0.6052" stop-color="#DD2820" stop-opacity="0.605"/>
<stop offset="1" stop-color="#C0272D"/>
</linearGradient>
<linearGradient id="paint14_linear" x1="125.768" y1="113.132" x2="128.765" y2="109.463" gradientUnits="userSpaceOnUse">
<stop stop-color="#F82814" stop-opacity="0"/>
<stop offset="0.2454" stop-color="#F12817" stop-opacity="0.245"/>
<stop offset="0.6052" stop-color="#DD2820" stop-opacity="0.605"/>
<stop offset="1" stop-color="#C0272D"/>
</linearGradient>
<linearGradient id="paint15_linear" x1="73.5896" y1="69.9357" x2="-10.3105" y2="-35.4031" gradientUnits="userSpaceOnUse">
<stop stop-color="#42210B" stop-opacity="0"/>
<stop offset="1" stop-color="#42210B"/>
</linearGradient>
<linearGradient id="paint16_linear" x1="37.5353" y1="28.4709" x2="65.8959" y2="75.2882" gradientUnits="userSpaceOnUse">
<stop stop-color="#FFDECF"/>
<stop offset="0.3791" stop-color="#FDC4B0"/>
<stop offset="0.7655" stop-color="#FBAE97"/>
<stop offset="1" stop-color="#FAA68E"/>
</linearGradient>
<linearGradient id="paint17_linear" x1="133.913" y1="65.3983" x2="44.9696" y2="-23.545" gradientUnits="userSpaceOnUse">
<stop stop-color="#42210B" stop-opacity="0"/>
<stop offset="1" stop-color="#42210B"/>
</linearGradient>
<linearGradient id="paint18_linear" x1="102.589" y1="34.5753" x2="123.324" y2="59.8177" gradientUnits="userSpaceOnUse">
<stop stop-color="#FFDECF"/>
<stop offset="0.3791" stop-color="#FDC4B0"/>
<stop offset="0.7655" stop-color="#FBAE97"/>
<stop offset="1" stop-color="#FAA68E"/>
</linearGradient>
<linearGradient id="paint19_linear" x1="113.684" y1="106.434" x2="64.0531" y2="3.12033" gradientUnits="userSpaceOnUse">
<stop stop-color="#42210B" stop-opacity="0"/>
<stop offset="1" stop-color="#42210B"/>
</linearGradient>
<linearGradient id="paint20_linear" x1="89.9829" y1="63.5353" x2="110.916" y2="100.899" gradientUnits="userSpaceOnUse">
<stop stop-color="#FFDECF"/>
<stop offset="0.3791" stop-color="#FDC4B0"/>
<stop offset="0.7655" stop-color="#FBAE97"/>
<stop offset="1" stop-color="#FAA68E"/>
</linearGradient>
<clipPath id="clip0">
<rect width="150" height="150" fill="white" transform="translate(0.423828 -0.209961)"/>
</clipPath>
</defs>
</svg>
