<svg
  width="48px"
  height="48px"
  viewBox="0 0 101 101"
  fill="none"
  xmlns="http://www.w3.org/2000/svg"
>
  <path
    d="M50.125 0.0993652H51.1384C57.6378 0.0993652 64.0735 1.37952 70.0782 3.86674C76.0829 6.35395 81.5389 9.99952 86.1346 14.5953C90.7304 19.1911 94.376 24.6471 96.8632 30.6517C99.3504 36.6564 100.631 43.0922 100.631 49.5916V50.6049C100.631 63.7311 95.4162 76.3196 86.1346 85.6012C76.8531 94.8828 64.2645 100.097 51.1384 100.097H0.632812V49.5916C0.632813 36.4655 5.84716 23.8769 15.1288 14.5953C24.4103 5.31371 36.9989 0.0993652 50.125 0.0993652Z"
    fill="white"
  />
  <path
    d="M67.1494 32.5965C65.8502 31.2836 64.0833 30.5395 62.2362 30.5276C61.3102 30.519 60.3921 30.6979 59.537 31.0534C58.6819 31.409 57.9077 31.9339 57.2608 32.5965C56.2826 33.5744 55.6164 34.8205 55.3464 36.1771C55.0764 37.5337 55.2148 38.9399 55.7441 40.2178C56.2733 41.4957 57.1697 42.588 58.3197 43.3565C59.4698 44.125 60.8219 44.5352 62.2051 44.5352C63.5883 44.5352 64.9404 44.125 66.0905 43.3565C67.2405 42.588 68.1369 41.4957 68.6661 40.2178C69.1954 38.9399 69.3338 37.5337 69.0638 36.1771C68.7938 34.8205 68.1276 33.5744 67.1494 32.5965ZM65.4095 40.7452C64.7744 41.3863 63.9632 41.8242 63.0788 42.0034C62.1944 42.1826 61.2767 42.0949 60.4422 41.7516C59.6077 41.4082 58.894 40.8246 58.3918 40.0749C57.8896 39.3252 57.6214 38.4432 57.6214 37.5408C57.6214 36.6384 57.8896 35.7564 58.3918 35.0067C58.894 34.257 59.6077 33.6734 60.4422 33.3301C61.2767 32.9867 62.1944 32.8991 63.0788 33.0783C63.9632 33.2574 64.7744 33.6954 65.4095 34.3364C66.2568 35.1877 66.7325 36.3398 66.7325 37.5408C66.7325 38.7418 66.2568 39.894 65.4095 40.7452ZM67.1494 32.5965C65.8502 31.2836 64.0833 30.5395 62.2362 30.5276C61.3102 30.519 60.3921 30.6979 59.537 31.0534C58.6819 31.409 57.9077 31.9339 57.2608 32.5965C56.2826 33.5744 55.6164 34.8205 55.3464 36.1771C55.0764 37.5337 55.2148 38.9399 55.7441 40.2178C56.2733 41.4957 57.1697 42.588 58.3197 43.3565C59.4698 44.125 60.8219 44.5352 62.2051 44.5352C63.5883 44.5352 64.9404 44.125 66.0905 43.3565C67.2405 42.588 68.1369 41.4957 68.6661 40.2178C69.1954 38.9399 69.3338 37.5337 69.0638 36.1771C68.7938 34.8205 68.1276 33.5744 67.1494 32.5965ZM65.4095 40.7452C64.7744 41.3863 63.9632 41.8242 63.0788 42.0034C62.1944 42.1826 61.2767 42.0949 60.4422 41.7516C59.6077 41.4082 58.894 40.8246 58.3918 40.0749C57.8896 39.3252 57.6214 38.4432 57.6214 37.5408C57.6214 36.6384 57.8896 35.7564 58.3918 35.0067C58.894 34.257 59.6077 33.6734 60.4422 33.3301C61.2767 32.9867 62.1944 32.8991 63.0788 33.0783C63.9632 33.2574 64.7744 33.6954 65.4095 34.3364C66.2568 35.1877 66.7325 36.3398 66.7325 37.5408C66.7325 38.7418 66.2568 39.894 65.4095 40.7452ZM67.1494 32.5965C65.8502 31.2836 64.0833 30.5395 62.2362 30.5276C61.3102 30.519 60.3921 30.6979 59.537 31.0534C58.6819 31.409 57.9077 31.9339 57.2608 32.5965C56.2826 33.5744 55.6164 34.8205 55.3464 36.1771C55.0764 37.5337 55.2148 38.9399 55.7441 40.2178C56.2733 41.4957 57.1697 42.588 58.3197 43.3565C59.4698 44.125 60.8219 44.5352 62.2051 44.5352C63.5883 44.5352 64.9404 44.125 66.0905 43.3565C67.2405 42.588 68.1369 41.4957 68.6661 40.2178C69.1954 38.9399 69.3338 37.5337 69.0638 36.1771C68.7938 34.8205 68.1276 33.5744 67.1494 32.5965ZM65.4095 40.7452C64.7744 41.3863 63.9632 41.8242 63.0788 42.0034C62.1944 42.1826 61.2767 42.0949 60.4422 41.7516C59.6077 41.4082 58.894 40.8246 58.3918 40.0749C57.8896 39.3252 57.6214 38.4432 57.6214 37.5408C57.6214 36.6384 57.8896 35.7564 58.3918 35.0067C58.894 34.257 59.6077 33.6734 60.4422 33.3301C61.2767 32.9867 62.1944 32.8991 63.0788 33.0783C63.9632 33.2574 64.7744 33.6954 65.4095 34.3364C66.2568 35.1877 66.7325 36.3398 66.7325 37.5408C66.7325 38.7418 66.2568 39.894 65.4095 40.7452ZM67.1494 32.5965C65.8502 31.2836 64.0833 30.5395 62.2362 30.5276C61.3102 30.519 60.3921 30.6979 59.537 31.0534C58.6819 31.409 57.9077 31.9339 57.2608 32.5965C56.2826 33.5744 55.6164 34.8205 55.3464 36.1771C55.0764 37.5337 55.2148 38.9399 55.7441 40.2178C56.2733 41.4957 57.1697 42.588 58.3197 43.3565C59.4698 44.125 60.8219 44.5352 62.2051 44.5352C63.5883 44.5352 64.9404 44.125 66.0905 43.3565C67.2405 42.588 68.1369 41.4957 68.6661 40.2178C69.1954 38.9399 69.3338 37.5337 69.0638 36.1771C68.7938 34.8205 68.1276 33.5744 67.1494 32.5965ZM65.4095 40.7452C64.7744 41.3863 63.9632 41.8242 63.0788 42.0034C62.1944 42.1826 61.2767 42.0949 60.4422 41.7516C59.6077 41.4082 58.894 40.8246 58.3918 40.0749C57.8896 39.3252 57.6214 38.4432 57.6214 37.5408C57.6214 36.6384 57.8896 35.7564 58.3918 35.0067C58.894 34.257 59.6077 33.6734 60.4422 33.3301C61.2767 32.9867 62.1944 32.8991 63.0788 33.0783C63.9632 33.2574 64.7744 33.6954 65.4095 34.3364C66.2568 35.1877 66.7325 36.3398 66.7325 37.5408C66.7325 38.7418 66.2568 39.894 65.4095 40.7452ZM67.1494 32.5965C65.8502 31.2836 64.0833 30.5395 62.2362 30.5276C61.3102 30.519 60.3921 30.6979 59.537 31.0534C58.6819 31.409 57.9077 31.9339 57.2608 32.5965C56.2826 33.5744 55.6164 34.8205 55.3464 36.1771C55.0764 37.5337 55.2148 38.9399 55.7441 40.2178C56.2733 41.4957 57.1697 42.588 58.3197 43.3565C59.4698 44.125 60.8219 44.5352 62.2051 44.5352C63.5883 44.5352 64.9404 44.125 66.0905 43.3565C67.2405 42.588 68.1369 41.4957 68.6661 40.2178C69.1954 38.9399 69.3338 37.5337 69.0638 36.1771C68.7938 34.8205 68.1276 33.5744 67.1494 32.5965ZM65.4095 40.7452C64.7744 41.3863 63.9632 41.8242 63.0788 42.0034C62.1944 42.1826 61.2767 42.0949 60.4422 41.7516C59.6077 41.4082 58.894 40.8246 58.3918 40.0749C57.8896 39.3252 57.6214 38.4432 57.6214 37.5408C57.6214 36.6384 57.8896 35.7564 58.3918 35.0067C58.894 34.257 59.6077 33.6734 60.4422 33.3301C61.2767 32.9867 62.1944 32.8991 63.0788 33.0783C63.9632 33.2574 64.7744 33.6954 65.4095 34.3364C66.2568 35.1877 66.7325 36.3398 66.7325 37.5408C66.7325 38.7418 66.2568 39.894 65.4095 40.7452ZM67.1494 32.5965C65.8502 31.2836 64.0833 30.5395 62.2362 30.5276C61.3102 30.519 60.3921 30.6979 59.537 31.0534C58.6819 31.409 57.9077 31.9339 57.2608 32.5965C56.2826 33.5744 55.6164 34.8205 55.3464 36.1771C55.0764 37.5337 55.2148 38.9399 55.7441 40.2178C56.2733 41.4957 57.1697 42.588 58.3197 43.3565C59.4698 44.125 60.8219 44.5352 62.2051 44.5352C63.5883 44.5352 64.9404 44.125 66.0905 43.3565C67.2405 42.588 68.1369 41.4957 68.6661 40.2178C69.1954 38.9399 69.3338 37.5337 69.0638 36.1771C68.7938 34.8205 68.1276 33.5744 67.1494 32.5965ZM65.4095 40.7452C64.7744 41.3863 63.9632 41.8242 63.0788 42.0034C62.1944 42.1826 61.2767 42.0949 60.4422 41.7516C59.6077 41.4082 58.894 40.8246 58.3918 40.0749C57.8896 39.3252 57.6214 38.4432 57.6214 37.5408C57.6214 36.6384 57.8896 35.7564 58.3918 35.0067C58.894 34.257 59.6077 33.6734 60.4422 33.3301C61.2767 32.9867 62.1944 32.8991 63.0788 33.0783C63.9632 33.2574 64.7744 33.6954 65.4095 34.3364C66.2568 35.1877 66.7325 36.3398 66.7325 37.5408C66.7325 38.7418 66.2568 39.894 65.4095 40.7452ZM67.1494 32.5965C65.8502 31.2836 64.0833 30.5395 62.2362 30.5276C61.3102 30.519 60.3921 30.6979 59.537 31.0534C58.6819 31.409 57.9077 31.9339 57.2608 32.5965C56.2826 33.5744 55.6164 34.8205 55.3464 36.1771C55.0764 37.5337 55.2148 38.9399 55.7441 40.2178C56.2733 41.4957 57.1697 42.588 58.3197 43.3565C59.4698 44.125 60.8219 44.5352 62.2051 44.5352C63.5883 44.5352 64.9404 44.125 66.0905 43.3565C67.2405 42.588 68.1369 41.4957 68.6661 40.2178C69.1954 38.9399 69.3338 37.5337 69.0638 36.1771C68.7938 34.8205 68.1276 33.5744 67.1494 32.5965ZM65.4095 40.7452C64.7744 41.3863 63.9632 41.8242 63.0788 42.0034C62.1944 42.1826 61.2767 42.0949 60.4422 41.7516C59.6077 41.4082 58.894 40.8246 58.3918 40.0749C57.8896 39.3252 57.6214 38.4432 57.6214 37.5408C57.6214 36.6384 57.8896 35.7564 58.3918 35.0067C58.894 34.257 59.6077 33.6734 60.4422 33.3301C61.2767 32.9867 62.1944 32.8991 63.0788 33.0783C63.9632 33.2574 64.7744 33.6954 65.4095 34.3364C66.2568 35.1877 66.7325 36.3398 66.7325 37.5408C66.7325 38.7418 66.2568 39.894 65.4095 40.7452ZM67.1494 32.5965C65.8502 31.2836 64.0833 30.5395 62.2362 30.5276C61.3102 30.519 60.3921 30.6979 59.537 31.0534C58.6819 31.409 57.9077 31.9339 57.2608 32.5965C56.2826 33.5744 55.6164 34.8205 55.3464 36.1771C55.0764 37.5337 55.2148 38.9399 55.7441 40.2178C56.2733 41.4957 57.1697 42.588 58.3197 43.3565C59.4698 44.125 60.8219 44.5352 62.2051 44.5352C63.5883 44.5352 64.9404 44.125 66.0905 43.3565C67.2405 42.588 68.1369 41.4957 68.6661 40.2178C69.1954 38.9399 69.3338 37.5337 69.0638 36.1771C68.7938 34.8205 68.1276 33.5744 67.1494 32.5965ZM65.4095 40.7452C64.7744 41.3863 63.9632 41.8242 63.0788 42.0034C62.1944 42.1826 61.2767 42.0949 60.4422 41.7516C59.6077 41.4082 58.894 40.8246 58.3918 40.0749C57.8896 39.3252 57.6214 38.4432 57.6214 37.5408C57.6214 36.6384 57.8896 35.7564 58.3918 35.0067C58.894 34.257 59.6077 33.6734 60.4422 33.3301C61.2767 32.9867 62.1944 32.8991 63.0788 33.0783C63.9632 33.2574 64.7744 33.6954 65.4095 34.3364C66.2568 35.1877 66.7325 36.3398 66.7325 37.5408C66.7325 38.7418 66.2568 39.894 65.4095 40.7452ZM67.1494 32.5965C65.8502 31.2836 64.0833 30.5395 62.2362 30.5276C61.3102 30.519 60.3921 30.6979 59.537 31.0534C58.6819 31.409 57.9077 31.9339 57.2608 32.5965C56.2826 33.5744 55.6164 34.8205 55.3464 36.1771C55.0764 37.5337 55.2148 38.9399 55.7441 40.2178C56.2733 41.4957 57.1697 42.588 58.3197 43.3565C59.4698 44.125 60.8219 44.5352 62.2051 44.5352C63.5883 44.5352 64.9404 44.125 66.0905 43.3565C67.2405 42.588 68.1369 41.4957 68.6661 40.2178C69.1954 38.9399 69.3338 37.5337 69.0638 36.1771C68.7938 34.8205 68.1276 33.5744 67.1494 32.5965ZM65.4095 40.7452C64.7744 41.3863 63.9632 41.8242 63.0788 42.0034C62.1944 42.1826 61.2767 42.0949 60.4422 41.7516C59.6077 41.4082 58.894 40.8246 58.3918 40.0749C57.8896 39.3252 57.6214 38.4432 57.6214 37.5408C57.6214 36.6384 57.8896 35.7564 58.3918 35.0067C58.894 34.257 59.6077 33.6734 60.4422 33.3301C61.2767 32.9867 62.1944 32.8991 63.0788 33.0783C63.9632 33.2574 64.7744 33.6954 65.4095 34.3364C66.2568 35.1877 66.7325 36.3398 66.7325 37.5408C66.7325 38.7418 66.2568 39.894 65.4095 40.7452ZM67.1494 32.5965C65.8502 31.2836 64.0833 30.5395 62.2362 30.5276C61.3102 30.519 60.3921 30.6979 59.537 31.0534C58.6819 31.409 57.9077 31.9339 57.2608 32.5965C56.2826 33.5744 55.6164 34.8205 55.3464 36.1771C55.0764 37.5337 55.2148 38.9399 55.7441 40.2178C56.2733 41.4957 57.1697 42.588 58.3197 43.3565C59.4698 44.125 60.8219 44.5352 62.2051 44.5352C63.5883 44.5352 64.9404 44.125 66.0905 43.3565C67.2405 42.588 68.1369 41.4957 68.6661 40.2178C69.1954 38.9399 69.3338 37.5337 69.0638 36.1771C68.7938 34.8205 68.1276 33.5744 67.1494 32.5965ZM65.4095 40.7452C64.7744 41.3863 63.9632 41.8242 63.0788 42.0034C62.1944 42.1826 61.2767 42.0949 60.4422 41.7516C59.6077 41.4082 58.894 40.8246 58.3918 40.0749C57.8896 39.3252 57.6214 38.4432 57.6214 37.5408C57.6214 36.6384 57.8896 35.7564 58.3918 35.0067C58.894 34.257 59.6077 33.6734 60.4422 33.3301C61.2767 32.9867 62.1944 32.8991 63.0788 33.0783C63.9632 33.2574 64.7744 33.6954 65.4095 34.3364C66.2568 35.1877 66.7325 36.3398 66.7325 37.5408C66.7325 38.7418 66.2568 39.894 65.4095 40.7452ZM67.1494 32.5965C65.8502 31.2836 64.0833 30.5395 62.2362 30.5276C61.3102 30.519 60.3921 30.6979 59.537 31.0534C58.6819 31.409 57.9077 31.9339 57.2608 32.5965C56.2826 33.5744 55.6164 34.8205 55.3464 36.1771C55.0764 37.5337 55.2148 38.9399 55.7441 40.2178C56.2733 41.4957 57.1697 42.588 58.3197 43.3565C59.4698 44.125 60.8219 44.5352 62.2051 44.5352C63.5883 44.5352 64.9404 44.125 66.0905 43.3565C67.2405 42.588 68.1369 41.4957 68.6661 40.2178C69.1954 38.9399 69.3338 37.5337 69.0638 36.1771C68.7938 34.8205 68.1276 33.5744 67.1494 32.5965ZM65.4095 40.7452C64.7744 41.3863 63.9632 41.8242 63.0788 42.0034C62.1944 42.1826 61.2767 42.0949 60.4422 41.7516C59.6077 41.4082 58.894 40.8246 58.3918 40.0749C57.8896 39.3252 57.6214 38.4432 57.6214 37.5408C57.6214 36.6384 57.8896 35.7564 58.3918 35.0067C58.894 34.257 59.6077 33.6734 60.4422 33.3301C61.2767 32.9867 62.1944 32.8991 63.0788 33.0783C63.9632 33.2574 64.7744 33.6954 65.4095 34.3364C66.2568 35.1877 66.7325 36.3398 66.7325 37.5408C66.7325 38.7418 66.2568 39.894 65.4095 40.7452ZM67.1494 32.5965C65.8502 31.2836 64.0833 30.5395 62.2362 30.5276C61.3102 30.519 60.3921 30.6979 59.537 31.0534C58.6819 31.409 57.9077 31.9339 57.2608 32.5965C56.2826 33.5744 55.6164 34.8205 55.3464 36.1771C55.0764 37.5337 55.2148 38.9399 55.7441 40.2178C56.2733 41.4957 57.1697 42.588 58.3197 43.3565C59.4698 44.125 60.8219 44.5352 62.2051 44.5352C63.5883 44.5352 64.9404 44.125 66.0905 43.3565C67.2405 42.588 68.1369 41.4957 68.6661 40.2178C69.1954 38.9399 69.3338 37.5337 69.0638 36.1771C68.7938 34.8205 68.1276 33.5744 67.1494 32.5965ZM65.4095 40.7452C64.7744 41.3863 63.9632 41.8242 63.0788 42.0034C62.1944 42.1826 61.2767 42.0949 60.4422 41.7516C59.6077 41.4082 58.894 40.8246 58.3918 40.0749C57.8896 39.3252 57.6214 38.4432 57.6214 37.5408C57.6214 36.6384 57.8896 35.7564 58.3918 35.0067C58.894 34.257 59.6077 33.6734 60.4422 33.3301C61.2767 32.9867 62.1944 32.8991 63.0788 33.0783C63.9632 33.2574 64.7744 33.6954 65.4095 34.3364C66.2568 35.1877 66.7325 36.3398 66.7325 37.5408C66.7325 38.7418 66.2568 39.894 65.4095 40.7452ZM67.1494 32.5965C65.8502 31.2836 64.0833 30.5395 62.2362 30.5276C61.3102 30.519 60.3921 30.6979 59.537 31.0534C58.6819 31.409 57.9077 31.9339 57.2608 32.5965C56.2826 33.5744 55.6164 34.8205 55.3464 36.1771C55.0764 37.5337 55.2148 38.9399 55.7441 40.2178C56.2733 41.4957 57.1697 42.588 58.3197 43.3565C59.4698 44.125 60.8219 44.5352 62.2051 44.5352C63.5883 44.5352 64.9404 44.125 66.0905 43.3565C67.2405 42.588 68.1369 41.4957 68.6661 40.2178C69.1954 38.9399 69.3338 37.5337 69.0638 36.1771C68.7938 34.8205 68.1276 33.5744 67.1494 32.5965ZM65.4095 40.7452C64.7744 41.3863 63.9632 41.8242 63.0788 42.0034C62.1944 42.1826 61.2767 42.0949 60.4422 41.7516C59.6077 41.4082 58.894 40.8246 58.3918 40.0749C57.8896 39.3252 57.6214 38.4432 57.6214 37.5408C57.6214 36.6384 57.8896 35.7564 58.3918 35.0067C58.894 34.257 59.6077 33.6734 60.4422 33.3301C61.2767 32.9867 62.1944 32.8991 63.0788 33.0783C63.9632 33.2574 64.7744 33.6954 65.4095 34.3364C66.2568 35.1877 66.7325 36.3398 66.7325 37.5408C66.7325 38.7418 66.2568 39.894 65.4095 40.7452ZM67.1494 32.5965C65.8502 31.2836 64.0833 30.5395 62.2362 30.5276C61.3102 30.519 60.3921 30.6979 59.537 31.0534C58.6819 31.409 57.9077 31.9339 57.2608 32.5965C56.2826 33.5744 55.6164 34.8205 55.3464 36.1771C55.0764 37.5337 55.2148 38.9399 55.7441 40.2178C56.2733 41.4957 57.1697 42.588 58.3197 43.3565C59.4698 44.125 60.8219 44.5352 62.2051 44.5352C63.5883 44.5352 64.9404 44.125 66.0905 43.3565C67.2405 42.588 68.1369 41.4957 68.6661 40.2178C69.1954 38.9399 69.3338 37.5337 69.0638 36.1771C68.7938 34.8205 68.1276 33.5744 67.1494 32.5965ZM65.4095 40.7452C64.7744 41.3863 63.9632 41.8242 63.0788 42.0034C62.1944 42.1826 61.2767 42.0949 60.4422 41.7516C59.6077 41.4082 58.894 40.8246 58.3918 40.0749C57.8896 39.3252 57.6214 38.4432 57.6214 37.5408C57.6214 36.6384 57.8896 35.7564 58.3918 35.0067C58.894 34.257 59.6077 33.6734 60.4422 33.3301C61.2767 32.9867 62.1944 32.8991 63.0788 33.0783C63.9632 33.2574 64.7744 33.6954 65.4095 34.3364C66.2568 35.1877 66.7325 36.3398 66.7325 37.5408C66.7325 38.7418 66.2568 39.894 65.4095 40.7452ZM67.1494 32.5965C65.8502 31.2836 64.0833 30.5395 62.2362 30.5276C61.3102 30.519 60.3921 30.6979 59.537 31.0534C58.6819 31.409 57.9077 31.9339 57.2608 32.5965C56.2826 33.5744 55.6164 34.8205 55.3464 36.1771C55.0764 37.5337 55.2148 38.9399 55.7441 40.2178C56.2733 41.4957 57.1697 42.588 58.3197 43.3565C59.4698 44.125 60.8219 44.5352 62.2051 44.5352C63.5883 44.5352 64.9404 44.125 66.0905 43.3565C67.2405 42.588 68.1369 41.4957 68.6661 40.2178C69.1954 38.9399 69.3338 37.5337 69.0638 36.1771C68.7938 34.8205 68.1276 33.5744 67.1494 32.5965ZM65.4095 40.7452C64.7744 41.3863 63.9632 41.8242 63.0788 42.0034C62.1944 42.1826 61.2767 42.0949 60.4422 41.7516C59.6077 41.4082 58.894 40.8246 58.3918 40.0749C57.8896 39.3252 57.6214 38.4432 57.6214 37.5408C57.6214 36.6384 57.8896 35.7564 58.3918 35.0067C58.894 34.257 59.6077 33.6734 60.4422 33.3301C61.2767 32.9867 62.1944 32.8991 63.0788 33.0783C63.9632 33.2574 64.7744 33.6954 65.4095 34.3364C66.2568 35.1877 66.7325 36.3398 66.7325 37.5408C66.7325 38.7418 66.2568 39.894 65.4095 40.7452Z"
    fill="#231F20"
  />
  <path
    d="M79.1138 20.9144C78.8215 20.62 78.464 20.3984 78.0703 20.2675C77.6766 20.1367 77.2576 20.1002 76.8472 20.1611L73.7806 20.7122C65.1296 22.3706 56.9166 25.8049 49.6601 30.7982C42.4037 35.7915 36.2615 42.2353 31.6215 49.7227C31.5794 49.7891 31.5416 49.8581 31.5082 49.9293C31.4393 50.0499 31.3813 50.1763 31.3348 50.3071C31.1371 50.9026 31.1704 51.6804 31.4237 52.5959C31.886 54.3137 33.0926 56.5047 34.8703 58.7847C34.3881 58.0438 34.014 57.2379 33.7592 56.3914C33.6052 55.9361 33.5867 55.4459 33.7059 54.9803C33.7345 54.8992 33.7694 54.8204 33.8104 54.7448C33.8188 54.7288 33.8301 54.7145 33.8437 54.7026C33.8766 54.6496 33.9162 54.601 33.9615 54.5581C34.3459 54.1759 35.0126 54.1292 35.8548 54.3692C37.4392 54.8137 39.6458 56.2603 41.728 58.3469C43.8101 60.4335 45.2457 62.6179 45.6945 64.2023C45.9434 65.0534 45.8968 65.7268 45.519 66.1112L45.4901 66.1356C45.454 66.1697 45.4154 66.2009 45.3745 66.229C45.2271 66.3263 45.0603 66.3908 44.8857 66.4179C44.4567 66.4731 44.0208 66.4313 43.6101 66.2956C42.7849 66.031 41.9987 65.6573 41.2724 65.1845C43.5124 66.9334 45.6612 68.1334 47.3723 68.6178C48.0374 68.8353 48.7424 68.9028 49.4367 68.8156C49.7164 68.7449 49.9828 68.6294 50.2255 68.4734L50.4144 68.36C57.8274 63.8296 64.2136 57.8023 69.1649 50.6635C74.1162 43.5247 77.5236 35.4314 79.1693 26.9009L79.8516 23.2321V23.1855C79.9136 22.7756 79.8792 22.357 79.7511 21.9628C79.623 21.5685 79.4048 21.2096 79.1138 20.9144ZM76.7627 26.441C73.7072 42.3362 63.283 57.0469 49.7478 65.9245C49.0189 63.3624 46.3679 59.5247 43.0102 56.167C39.6525 52.8093 36.7881 51.056 34.2192 50.336C43.2724 36.7141 58.1454 26.201 74.2517 23.1344L77.2094 22.5944C77.2397 22.5933 77.27 22.5985 77.2983 22.6096C77.3266 22.6206 77.3523 22.6374 77.3738 22.6588C77.3935 22.6804 77.4087 22.7056 77.4186 22.7331C77.4286 22.7605 77.433 22.7897 77.4316 22.8188L76.7627 26.441Z"
    fill="#231F20"
  />
  <path
    d="M68.9737 57.9114C68.9281 57.5629 68.7773 57.2367 68.5415 56.9762C68.3056 56.7157 67.9959 56.5334 67.6537 56.4536C67.326 56.3813 66.9842 56.4073 66.6712 56.5283C66.3582 56.6492 66.0877 56.8598 65.8937 57.1336C63.1816 60.3432 60.1572 63.2753 56.865 65.8867L56.8361 65.9134C56.4747 66.0677 56.1858 66.3542 56.0284 66.7143C55.8711 67.0744 55.8571 67.4811 55.9895 67.8511L59.1872 75.8132C59.3154 76.2274 59.5576 76.5972 59.8862 76.8801C60.2147 77.1631 60.6163 77.3478 61.0449 77.4131C61.169 77.4345 61.2946 77.4449 61.4205 77.4443C61.813 77.4442 62.1994 77.3468 62.545 77.1606C62.8906 76.9744 63.1845 76.7054 63.4004 76.3776L65.236 73.7243C68.4285 69.112 69.7633 63.4649 68.9737 57.9114ZM63.2093 72.3244L61.4583 74.8576L58.5694 67.6733C61.4923 65.3353 64.213 62.7551 66.7026 59.9602C66.9403 64.3548 65.7116 68.7039 63.2093 72.3244Z"
    fill="#231F20"
  />
  <path
    d="M43.579 32.583C43.498 32.2413 43.3146 31.9324 43.0533 31.6977C42.792 31.463 42.4653 31.3137 42.1168 31.2697C36.5626 30.4809 30.9151 31.8156 26.3016 35.0074L23.735 36.7852C23.338 36.9751 23.0064 37.2785 22.782 37.6571C22.5577 38.0357 22.4509 38.4724 22.475 38.9118C22.5087 39.3683 22.6801 39.8039 22.9665 40.161C23.253 40.5181 23.6411 40.7799 24.0794 40.9117L31.9748 44.0828L32.0437 44.1072C32.1945 44.1558 32.3519 44.1805 32.5104 44.1806C32.9488 44.1618 33.3721 44.015 33.7281 43.7583L33.8281 43.6917L34.0503 43.4695L34.1592 43.3472C36.5325 40.2362 39.388 37.2807 42.8924 34.3408C43.1657 34.1466 43.3763 33.8768 43.4983 33.5645C43.6203 33.2522 43.6483 32.9111 43.579 32.583ZM32.397 41.6051L25.2483 38.7318L27.6927 37.0341C31.3103 34.5307 35.6572 33.3004 40.0502 33.5364C37.2415 35.9692 34.6782 38.6718 32.397 41.6051Z"
    fill="#231F20"
  />
  <path
    fillRule="evenodd"
    clipRule="evenodd"
    d="M16.6477 89.0707C16.6277 89.1396 16.61 89.2085 16.5922 89.2796C16.4691 89.7666 16.402 90.2662 16.3922 90.7684C16.3886 91.8212 16.5004 92.8711 16.7255 93.8995C16.7966 94.2595 16.9988 94.7039 17.0011 95.0706C17.0011 95.0706 16.9522 90.6907 24.3742 87.5396C36.2251 82.5042 40.1628 74.651 39.0606 68.9378C38.6317 69.8489 37.8562 70.6089 37.1495 71.5555C36.4713 72.4692 35.6696 73.2844 34.7673 73.9777C33.9937 74.5714 33.1513 75.0698 32.2585 75.4621C31.5254 75.787 30.7606 76.035 29.9763 76.2021C29.2252 76.3599 28.3742 76.5243 27.6208 76.2999C27.5976 76.2962 27.5754 76.2876 27.5559 76.2746C27.5363 76.2615 27.5198 76.2444 27.5075 76.2243C27.4975 76.1932 27.4975 76.1598 27.5075 76.1288C27.5663 75.8036 27.6822 75.4914 27.8497 75.2066C27.9357 75.0588 28.0346 74.919 28.1453 74.7888C28.2542 74.6643 28.3919 74.5666 28.4986 74.4421C28.4075 74.4666 28.3119 74.4599 28.2208 74.4777C28.0875 74.5043 27.9542 74.5355 27.823 74.5688C27.4275 74.6687 27.0386 74.7934 26.6586 74.9421C25.6947 75.3097 24.7987 75.8354 24.0076 76.4977C22.7167 77.6008 21.5138 78.8029 20.4099 80.0931C20.4099 80.0931 22.3276 69.6111 27.1675 65.1312C28.5792 63.7783 30.2019 62.6645 31.9718 61.8335C23.852 60.5536 15.0833 73.3777 11.4301 83.2442C6.69019 96.0505 0.634766 100.099 0.634766 100.099C1.93029 99.4905 3.10138 98.5616 4.23691 97.7016C5.81465 96.5061 7.34795 95.2572 8.86792 93.9795C10.1894 92.8684 11.4953 91.7403 12.7856 90.5951C13.1723 90.2507 13.5589 89.904 13.9345 89.5485C14.5899 88.8997 15.386 88.4107 16.2611 88.1196C16.5373 88.0302 16.8195 87.9604 17.1055 87.9107C17.0233 87.9263 16.8611 88.4529 16.8277 88.5374C16.7589 88.7085 16.6989 88.8863 16.6477 89.0707Z"
    fill="#231F20"
  />
</svg>