<svg width="24" height="24" viewBox="0 0 24 24" fill="none" xmlns="http://www.w3.org/2000/svg">
<path d="M23.5 19C23.5 21.4853 21.4853 23.5 19 23.5L0.5 23.5L0.500002 0.499998L19 0.5C21.4853 0.5 23.5 2.51472 23.5 5L23.5 19Z" fill="#9EA7B3" stroke="#DCDFE3"/>
<path fill-rule="evenodd" clip-rule="evenodd" d="M14.5346 13.239L11.7402 16.3202C11.4099 16.6844 10.8374 16.6844 10.5071 16.3202C10.2194 16.0029 10.2194 15.5191 10.5071 15.2018L12.8017 12.6718C13.1473 12.2906 13.1473 11.7094 12.8017 11.3282L10.5071 8.79815C10.2194 8.4809 10.2194 7.99709 10.5071 7.67984C10.8374 7.31559 11.4099 7.31559 11.7402 7.67984L14.5346 10.761C15.1551 11.4453 15.1551 12.5547 14.5346 13.239Z" fill="white"/>
</svg>