<svg width="24" height="24" viewBox="0 0 24 24" fill="none" xmlns="http://www.w3.org/2000/svg">
<path d="M23.5 19C23.5 21.4853 21.4853 23.5 19 23.5L0.5 23.5L0.500002 0.499998L19 0.5C21.4853 0.5 23.5 2.51472 23.5 5L23.5 19Z" fill="white" stroke="#DCDFE3"/>
<path d="M12.1106 16.6561L14.9049 13.5749C15.6984 12.7 15.6984 11.3 14.9049 10.4251L12.1106 7.34394C11.5818 6.76089 10.6655 6.76089 10.1367 7.34394C9.67618 7.85177 9.67618 8.62621 10.1367 9.13405L12.4313 11.6641C12.6041 11.8547 12.6041 12.1453 12.4313 12.3359L10.1367 14.866C9.67618 15.3738 9.67618 16.1482 10.1367 16.6561C10.6655 17.2391 11.5818 17.2391 12.1106 16.6561Z" fill="#3E5067" stroke="white"/>
</svg>