<svg width="13" height="12" viewBox="0 0 13 12" fill="none" xmlns="http://www.w3.org/2000/svg">
<path d="M11.5765 3.97686L8.03598 3.46236L6.45448 0.256364C6.4085 0.178293 6.34294 0.113576 6.26428 0.0686133C6.18561 0.0236507 6.09658 0 6.00598 0C5.91537 0 5.82634 0.0236507 5.74768 0.0686133C5.66902 0.113576 5.60345 0.178293 5.55748 0.256364L3.97298 3.46236L0.432476 3.97686C0.340146 3.99019 0.253386 4.02908 0.182004 4.08914C0.110622 4.1492 0.057465 4.22803 0.0285431 4.31672C-0.000378665 4.40541 -0.00391206 4.50042 0.0183424 4.59102C0.0405969 4.68161 0.0877517 4.76417 0.154476 4.82936L2.71698 7.32636L2.11248 10.8529C2.09672 10.9448 2.107 11.0393 2.14217 11.1258C2.17733 11.2122 2.23596 11.287 2.31144 11.3418C2.38692 11.3967 2.47623 11.4293 2.56928 11.436C2.66233 11.4427 2.7554 11.4233 2.83798 11.3799L6.00448 9.71536L9.17098 11.3799C9.25355 11.4233 9.34662 11.4427 9.43967 11.436C9.53272 11.4293 9.62203 11.3967 9.69751 11.3418C9.77299 11.287 9.83162 11.2122 9.86679 11.1258C9.90195 11.0393 9.91223 10.9448 9.89648 10.8529L9.29198 7.32636L11.8545 4.82936C11.9212 4.76424 11.9683 4.68175 11.9907 4.59123C12.013 4.50071 12.0095 4.40576 11.9807 4.3171C11.9519 4.22843 11.8989 4.14959 11.8276 4.08947C11.7564 4.02935 11.6697 3.99034 11.5775 3.97686H11.5765Z" fill="#31465E"/>
</svg>