<svg width="13" height="12" viewBox="0 0 13 12" fill="none" xmlns="http://www.w3.org/2000/svg">
<path d="M0.428569 3.97686L3.96907 3.46236L0.428569 3.97686ZM0.428569 3.97686C0.33624 3.99019 0.249479 4.02908 0.178097 4.08914M0.428569 3.97686L0.178097 4.08914M0.178097 4.08914C0.106715 4.1492 0.0535587 4.22803 0.0246369 4.31672M0.178097 4.08914L0.0246369 4.31672M0.0246369 4.31672C-0.00428491 4.40541 -0.00781831 4.50042 0.0144362 4.59102M0.0246369 4.31672L0.0144362 4.59102M0.0144362 4.59102C0.0366907 4.68161 0.0838455 4.76417 0.150569 4.82936M0.0144362 4.59102L0.150569 4.82936M0.150569 4.82936L2.71307 7.32636L0.150569 4.82936ZM11.5007 4.47167L11.5011 4.47174L8.93912 6.96826L8.75084 7.15173L8.79526 7.41084L9.39975 10.9373L9.39972 10.9373L6.23321 9.27278L6.00057 9.15049L5.76792 9.27278L2.60142 10.9373L2.60139 10.9373L3.20588 7.41084L3.2503 7.15173L3.06202 6.96826L0.5 4.47174L0.500473 4.47167L4.04097 3.95717L4.30093 3.91939L4.41731 3.6839L5.98823 0.505372C5.98935 0.504354 5.99058 0.503457 5.9919 0.502702C5.99499 0.500932 5.9985 0.5 6.00207 0.5C6.00564 0.5 6.00914 0.500931 6.01224 0.502702C6.01354 0.503447 6.01476 0.504328 6.01586 0.505329L7.58366 3.68356L7.69998 3.91936L7.96017 3.95717L11.5007 4.47167Z" stroke="#31465E"/>
</svg>